<?xml version="1.0" encoding="UTF-8"?>
<svg version="1.1" viewBox="0 0 640 360" preserveAspectRatio="xMidYMid meet" xmlns="http://www.w3.org/2000/svg" xmlns:xlink="http://www.w3.org/1999/xlink" stroke-linejoin="round" stroke-linecap="round"><!--SVG SMIL Animation Export (c) 2017 Animatron INC--><!--Version 1.0 by squared9--><defs><linearGradient gradientUnits="userSpaceOnUse" id="backgroundFilllgf" x1="0" y1="0" x2="1156.7359999999999" y2="619.992"><stop offset="0.0%" stop-color="#3c78f8" stop-opacity="1.0"/><stop offset="100.0%" stop-color="#00f70c" stop-opacity="1.0"/></linearGradient><mask id="canvasMask" maskUnits="userSpaceOnUse"><rect x="0" y="0" width="640px" height="360px" fill="#FFFFFF" stroke="none"/></mask><linearGradient gradientUnits="userSpaceOnUse" id="ida4f8dbb419a0677f36e5733clgf" x1="582.015" y1="-263.978" x2="557.98" y2="723.9804"><stop offset="0.0%" stop-color="#462c75" stop-opacity="1.0"/><stop offset="100.0%" stop-color="#3f51b5" stop-opacity="1.0"/></linearGradient><linearGradient gradientUnits="userSpaceOnUse" id="id120e3f164d73c4ca5124bc71lgf" x1="3.041126399999996" y1="-180.00350229999998" x2="-5.938252799999987" y2="190.99409680000002"><stop offset="0.0%" stop-color="#3f8cb5" stop-opacity="1.0"/><stop offset="100.0%" stop-color="#2b4035" stop-opacity="1.0"/></linearGradient><linearGradient gradientUnits="userSpaceOnUse" id="id9eb34a1ca2e4509d44a3fdf4lgf" x1="918.3" y1="1004.4" x2="918.3" y2="1031.3487344"><stop offset="0.0%" stop-color="#677a88" stop-opacity="1.0"/><stop offset="100.0%" stop-color="#1c2124" stop-opacity="1.0"/></linearGradient><linearGradient gradientUnits="userSpaceOnUse" id="id60c25b38f896e1f43a396890lgf" x1="915.286" y1="1013.8539148" x2="909.3127999999999" y2="1236.8496863999999"><stop offset="0.0%" stop-color="#a1b3c0" stop-opacity="1.0"/><stop offset="100.0%" stop-color="#1c2124" stop-opacity="1.0"/></linearGradient><linearGradient gradientUnits="userSpaceOnUse" id="id9940c2a2c48758be3a073901lgf" x1="918.7932" y1="997.3" x2="917.8068" y2="1069.3"><stop offset="0.0%" stop-color="#9ab5c9" stop-opacity="1.0"/><stop offset="100.0%" stop-color="#1c2124" stop-opacity="1.0"/></linearGradient></defs><rect fill="url(#backgroundFilllgf)" stroke="none" x="0" y="0" width="640px" height="360px"/><g id="id644f9885857620f4b3b25a02" mask="url(#canvasMask)"><g id="id9e77f5a5e8d9fc6fa8f7cd84" transform="matrix(1.0,0.0,0.0,1.0,-0.0,-0.0)"><g id="id059aad3d561215a88164e980" transform="matrix(1.0,0.0,0.0,1.0,691.0,138.0)"><path id="ida4f8dbb419a0677f36e5733c" d="M 0,0 L 1150,0 L 1150,572 L 0,572 L 0,0 M 0,0 Z" style="fill: url(#ida4f8dbb419a0677f36e5733clgf); stroke: none" transform="matrix(1.413913043478261,0.0,0.0,0.8881118881118881,-813.0,-254.0)"><set attributeName="opacity" to="1"/></path><g id="id8fde7e12586466f017ed06ed" transform="matrix(1.0,0.0,0.0,1.0,-72.195,-46.881)"><path id="id01c9940cac3cd390fd6d613c" d="M 6,-1 L 4.237,2.572 L 0.295,3.144 L 3.148,5.925 L 2.475,9.851 L 6,7.997 L 9.526,9.851 L 8.853,5.925 L 11.705,3.144 L 7.763,2.572 L 6,-1 " style="fill: #6da5d2; fill-opacity: 1.0; stroke: none" transform="matrix(1.0,0.0,0.0,1.0,-537.804,-85.118)"><set attributeName="opacity" to="1"/></path><path id="id1603e1bae3b2924513b7eff2" d="M 2,0 L 1.119,1.786 L -0.852,2.072 L 0.574,3.461 L 0.238,5.424 L 2.001,4.497 L 3.764,5.423 L 3.43,3.46 L 4.853,2.071 L 2.882,1.785 L 2.001,-0.001 " style="fill: #6da5d2; fill-opacity: 1.0; stroke: none" transform="matrix(1.0,0.0,0.0,1.0,-402.804,-83.118)"><set attributeName="opacity" to="1"/></path><path id="id5bddfc14d3c83a4891bf7a13" d="M 4.5,0 L 2.149,4.763 L -3.108,5.525 L 0.696,9.233 L -0.202,14.467 L 4.5,11.996 L 9.202,14.467 L 8.305,9.232 L 12.109,5.524 L 6.852,4.762 L 4.501,-0.001 " style="fill: #6da5d2; fill-opacity: 1.0; stroke: none" transform="matrix(1.0,0.0,0.0,1.0,-322.804,-119.118)"><set attributeName="opacity" to="1"/></path><path id="id123f90e6a49e5bae79541e3e" d="M 3.5,-0.5 L 2.472,1.584 L 0.172,1.918 L 1.836,3.54 L 1.444,5.83 L 3.501,4.75 L 5.558,5.83 L 5.166,3.54 L 6.829,1.918 L 4.529,1.584 L 3.501,-0.5 " style="fill: #6da5d2; fill-opacity: 1.0; stroke: none" transform="matrix(1.0,0.0,0.0,1.0,-207.804,-129.118)"><set attributeName="opacity" to="1"/></path><path id="id67e5fa30e87ceeb11a40af17" d="M 3.5,0 L 1.443,4.168 L -3.157,4.836 L 0.171,8.08 L -0.614,12.661 L 3.5,10.498 L 7.614,12.661 L 6.829,8.081 L 10.157,4.837 L 5.557,4.169 L 3.5,0.001 " style="fill: #6da5d2; fill-opacity: 1.0; stroke: none" transform="matrix(1.0,0.0,0.0,1.0,-452.804,-19.118000000000002)"><set attributeName="opacity" to="1"/></path><path id="idbfa9b788beb8a2eb48cc0768" d="M 1.5,0 L 0.619,1.786 L -1.352,2.072 L 0.074,3.461 L -0.262,5.424 L 1.501,4.497 L 3.263,5.423 L 2.929,3.46 L 4.353,2.071 L 2.382,1.785 L 1.501,-0.001 " style="fill: #6da5d2; fill-opacity: 1.0; stroke: none" transform="matrix(1.0,0.0,0.0,1.0,-329.804,-5.118)"><set attributeName="opacity" to="1"/></path><path id="id0c7c0d1ae08388aee55fc466" d="M 3,-0.5 L 2.119,1.286 L 0.148,1.572 L 1.574,2.961 L 1.238,4.924 L 3.001,3.997 L 4.764,4.924 L 4.428,2.961 L 5.854,1.571 L 3.883,1.285 L 3.002,-0.501 " style="fill: #6da5d2; fill-opacity: 1.0; stroke: none" transform="matrix(1.0,0.0,0.0,1.0,-253.804,-13.118)"><set attributeName="opacity" to="1"/></path><path id="ide866d183989825177af7595a" d="M 3.5,0 L 1.884,3.275 L -1.73,3.799 L 0.885,6.348 L 0.268,9.946 L 3.5,8.248 L 6.732,9.946 L 6.115,6.347 L 8.729,3.798 L 5.115,3.274 L 3.499,-0.001 " style="fill: #6da5d2; fill-opacity: 1.0; stroke: none" transform="matrix(1.0,0.0,0.0,1.0,-128.804,-65.118)"><set attributeName="opacity" to="1"/></path><path id="idc1133593b55f5abdb93670ed" d="M 2,0 L 0.384,3.275 L -3.23,3.799 L -0.615,6.348 L -1.232,9.946 L 2,8.248 L 5.232,9.946 L 4.615,6.347 L 7.23,3.798 L 3.616,3.274 L 2,-0.001 " style="fill: #6da5d2; fill-opacity: 1.0; stroke: none" transform="matrix(1.0,0.0,0.0,1.0,-69.804,-87.118)"><set attributeName="opacity" to="1"/></path><path id="id204a38ba8ef14c0af35d34ae" d="M 0,0 L -0.587,1.19 L -1.901,1.379 L -0.95,2.306 L -1.174,3.613 L 0.001,2.996 L 1.176,3.613 L 0.966,2.305 L 1.905,1.378 L 0.591,1.189 L 0.004,-0.001 " style="fill: #6da5d2; fill-opacity: 1.0; stroke: none" transform="matrix(1.0,0.0,0.0,1.0,-82.804,12.881)"><set attributeName="opacity" to="1"/></path><path id="iddfa0d41c9d52b940be1036a7" d="M 2.5,0 L 1.472,2.084 L -0.828,2.418 L 0.836,4.04 L 0.444,6.33 L 2.501,5.25 L 4.558,6.33 L 4.166,4.04 L 5.829,2.418 L 3.529,2.084 L 2.501,0 " style="fill: #6da5d2; fill-opacity: 1.0; stroke: none" transform="matrix(1.0,0.0,0.0,1.0,-171.804,4.881)"><set attributeName="opacity" to="1"/></path><path id="id91e0cfa18e5e05f5ac7cb475" d="M 1,0 L 0.561,0.893 L -0.424,1.036 L 0.289,1.73 L 0.121,2.71 L 1.002,2.247 L 1.883,2.71 L 1.716,1.73 L 2.428,1.036 L 1.444,0.893 L 1.005,0 " style="fill: #6da5d2; fill-opacity: 1.0; stroke: none" transform="matrix(1.0,0.0,0.0,1.0,-474.804,79.881)"><set attributeName="opacity" to="1"/></path><path id="id0342db5ef76159b502276437" d="M 6,-3 L 4.237,0.572 L 0.295,1.144 L 3.148,3.925 L 2.475,7.852 L 6,5.998 L 9.526,7.852 L 8.853,3.925 L 11.705,1.144 L 7.763,0.572 L 6,-3 Z" style="fill: #6da5d2; fill-opacity: 1.0; stroke: none" transform="matrix(1.0,0.0,0.0,1.0,-651.804,-93.118)"><set attributeName="opacity" to="1"/></path><path id="id9923c3315a19caa3c9bad750" d="M 1,0 L 0.708,0.595 L 0.051,0.676 L 0.526,1.126 L 0.428,1.779 L 1.002,1.471 L 1.589,1.779 L 1.477,1.126 L 1.951,0.663 L 1.294,0.582 L 1.002,-0.013 " style="fill: #6da5d2; fill-opacity: 1.0; stroke: none" transform="matrix(1.0,0.0,0.0,1.0,-645.804,-31.118)"><set attributeName="opacity" to="1"/></path><path id="idc1d2ac478790c310ca58a580" d="M 6,-1 L 4.237,2.572 L 0.295,3.144 L 3.148,5.925 L 2.475,9.851 L 6,7.997 L 9.526,9.851 L 8.853,5.925 L 11.705,3.144 L 7.763,2.572 L 6,-1 " style="fill: #6da5d2; fill-opacity: 1.0; stroke: none" transform="matrix(1.0,0.0,0.0,1.0,188.195,-149.118)"><set attributeName="opacity" to="1"/></path><path id="id6807714f7354f5d7046acae4" d="M 2,0 L 0.825,2.381 L -1.803,2.76 L 0.099,4.614 L -0.35,7.231 L 2.001,5.996 L 4.352,7.231 L 3.905,4.613 L 5.804,2.759 L 3.176,2.378 L 2.002,-0.003 " style="fill: #6da5d2; fill-opacity: 1.0; stroke: none" transform="matrix(1.0,0.0,0.0,1.0,114.195,-119.118)"><set attributeName="opacity" to="1"/></path><path id="iddacc11982934d8e5f219d634" d="M 8,-2 L 5.649,2.763 L 0.392,3.525 L 4.195,7.233 L 3.297,12.467 L 7.999,9.996 L 12.701,12.467 L 11.804,7.231 L 15.608,3.523 L 10.351,2.761 L 8,-2.002 " style="fill: #6da5d2; fill-opacity: 1.0; stroke: none" transform="matrix(1.0,0.0,0.0,1.0,76.195,-95.118)"><set attributeName="opacity" to="1"/></path><path id="id2705f4ff868c985578944067" d="M 7,-2 L 4.943,2.168 L 0.343,2.836 L 3.671,6.08 L 2.886,10.661 L 7,8.498 L 11.114,10.661 L 10.329,6.08 L 13.656,2.836 L 9.056,2.168 L 6.999,-2 " style="fill: #6da5d2; fill-opacity: 1.0; stroke: none" transform="matrix(1.0,0.0,0.0,1.0,66.195,-39.118)"><set attributeName="opacity" to="1"/></path><path id="idc40a1c13e8eae6fcb093a42d" d="M 6,-2 L 4.237,1.572 L 0.295,2.144 L 3.148,4.925 L 2.475,8.851 L 6,6.997 L 9.526,8.851 L 8.853,4.925 L 11.705,2.144 L 7.763,1.572 L 6,-2 " style="fill: #6da5d2; fill-opacity: 1.0; stroke: none" transform="matrix(1.0,0.0,0.0,1.0,-53.804,92.881)"><set attributeName="opacity" to="1"/></path><path id="idd068241a11cae38582bfb6e2" d="M 2,0 L 1.413,1.19 L 0.099,1.379 L 1.049,2.306 L 0.839,3.613 L 2.01,2.996 L 3.184,3.613 L 2.96,2.305 L 3.911,1.378 L 2.597,1.189 L 2.012,-0.001 " style="fill: #6da5d2; fill-opacity: 1.0; stroke: none" transform="matrix(1.0,0.0,0.0,1.0,-29.804,-27.118)"><set attributeName="opacity" to="1"/></path><path id="id889e63fc9603d47963b6f34d" d="M 3,-2 L 2.119,-0.214 L 0.148,0.072 L 1.574,1.462 L 1.238,3.424 L 3.001,2.497 L 4.764,3.424 L 4.428,1.461 L 5.854,0.071 L 3.883,-0.215 L 3.002,-2 " style="fill: #6da5d2; fill-opacity: 1.0; stroke: none" transform="matrix(1.0,0.0,0.0,1.0,-473.804,126.881)"><set attributeName="opacity" to="1"/></path><path id="idd08f44297eeba6ab4e3aaab3" d="M 5,-3 L 3.531,-0.023 L 0.246,0.454 L 2.623,2.771 L 2.062,6.042 L 5,4.497 L 7.938,6.042 L 7.377,2.77 L 9.754,0.453 L 6.469,-0.024 L 5,-3.001 " style="fill: #6da5d2; fill-opacity: 1.0; stroke: none" transform="matrix(1.0,0.0,0.0,1.0,-341.804,74.881)"><set attributeName="opacity" to="1"/></path><path id="ida0d3f1d7fc1573233d4357fa" d="M 7,-3 L 4.943,1.168 L 0.343,1.836 L 3.671,5.08 L 2.886,9.661 L 7,7.498 L 11.114,9.661 L 10.329,5.08 L 13.656,1.836 L 9.056,1.168 L 6.999,-3 " style="fill: #6da5d2; fill-opacity: 1.0; stroke: none" transform="matrix(1.0,0.0,0.0,1.0,-595.804,60.881)"><set attributeName="opacity" to="1"/></path><path id="id1811a05f8023acd2effe4307" d="M 9,0 L 6.356,5.359 L 0.442,6.218 L 4.721,10.388 L 3.713,16.277 L 9.001,13.496 L 14.29,16.277 L 13.281,10.387 L 17.557,6.216 L 11.643,5.357 L 8.999,-0.002 " style="fill: #6da5d2; fill-opacity: 1.0; stroke: none" transform="matrix(1.0,0.0,0.0,1.0,-549.804,-181.118)"><set attributeName="opacity" to="1"/></path><path id="idd6d32c5aca0f111f51d1098a" d="M 2,-1 L 1.413,0.19 L 0.099,0.38 L 1.049,1.307 L 0.839,2.615 L 2.01,1.998 L 3.184,2.615 L 2.96,1.306 L 3.911,0.379 L 2.597,0.189 L 2.012,-1.001 " style="fill: #6da5d2; fill-opacity: 1.0; stroke: none" transform="matrix(1.0,0.0,0.0,1.0,336.195,-169.118)"><set attributeName="opacity" to="1"/></path><path id="id179342d2effc19c8bf3c2b29" d="M 4,0 L 2.237,3.572 L -1.705,4.144 L 1.148,6.925 L 0.475,10.851 L 4,8.999 L 7.526,10.851 L 6.853,6.925 L 9.705,4.144 L 5.763,3.572 L 4,0 Z" style="fill: #6da5d2; fill-opacity: 1.0; stroke: none" transform="matrix(1.0,0.0,0.0,1.0,328.195,-91.118)"><set attributeName="opacity" to="1"/></path><path id="id7d387078b827ac5b24d1fd4c" d="M 5,-2 L 3.531,0.977 L 0.246,1.453 L 2.623,3.77 L 2.062,7.041 L 5,5.496 L 7.938,7.041 L 7.377,3.769 L 9.754,1.452 L 6.469,0.975 L 5,-2.002 " style="fill: #6da5d2; fill-opacity: 1.0; stroke: none" transform="matrix(1.0,0.0,0.0,1.0,222.195,-55.118)"><set attributeName="opacity" to="1"/></path><path id="id15ac2dbc3a84176a364cfdbc" d="M 5,-2 L 3.531,0.977 L 0.246,1.453 L 2.623,3.77 L 2.062,7.041 L 5,5.496 L 7.938,7.041 L 7.377,3.769 L 9.754,1.452 L 6.469,0.975 L 5,-2.002 " style="fill: #6da5d2; fill-opacity: 1.0; stroke: none" transform="matrix(1.0,0.0,0.0,1.0,102.195,60.881)"><set attributeName="opacity" to="1"/></path><path id="id9cec61e790a80b2412e9daf8" d="M 5,-2 L 3.531,0.977 L 0.246,1.453 L 2.623,3.77 L 2.062,7.041 L 5,5.496 L 7.938,7.041 L 7.377,3.769 L 9.754,1.452 L 6.469,0.975 L 5,-2.002 " style="fill: #6da5d2; fill-opacity: 1.0; stroke: none" transform="matrix(1.0,0.0,0.0,1.0,220.195,66.881)"><set attributeName="opacity" to="1"/></path><path id="iddc86bc0e36adb69293a576c4" d="M 4,-1 L 2.826,1.381 L 0.198,1.762 L 2.099,3.615 L 1.65,6.233 L 4.001,4.998 L 6.352,6.233 L 5.904,3.615 L 7.806,1.761 L 5.178,1.38 L 4.004,-1.001 " style="fill: #6da5d2; fill-opacity: 1.0; stroke: none" transform="matrix(1.0,0.0,0.0,1.0,160.195,-7.118)"><set attributeName="opacity" to="1"/></path><path id="id8776c74ee320c29431ef8bae" d="M 5,0 L 3.531,2.977 L 0.246,3.453 L 2.623,5.769 L 2.062,9.038 L 5,7.493 L 7.938,9.038 L 7.377,5.766 L 9.754,3.449 L 6.469,2.973 L 5,-0.004 " style="fill: #6da5d2; fill-opacity: 1.0; stroke: none" transform="matrix(1.0,0.0,0.0,1.0,-41.804,-155.118)"><set attributeName="opacity" to="1"/></path><path id="id350233c541d96920c2e5eca1" d="M 5,-1 L 3.531,1.977 L 0.246,2.453 L 2.623,4.769 L 2.062,8.038 L 5,6.493 L 7.938,8.038 L 7.377,4.766 L 9.754,2.449 L 6.469,1.973 L 5,-1.004 " style="fill: #6da5d2; fill-opacity: 1.0; stroke: none" transform="matrix(1.0,0.0,0.0,1.0,504.195,-153.118)"><set attributeName="opacity" to="1"/></path><path id="id6e635ae8cb90f3012c41e3dc" d="M 8,-2 L 5.649,2.763 L 0.392,3.525 L 4.195,7.233 L 3.297,12.467 L 7.999,9.996 L 12.701,12.467 L 11.804,7.231 L 15.608,3.523 L 10.351,2.761 L 8,-2.002 " style="fill: #6da5d2; fill-opacity: 1.0; stroke: none" transform="matrix(1.0,0.0,0.0,1.0,338.195,-25.118)"><set attributeName="opacity" to="1"/></path><path id="idce9cb6c8102a4deb679364be" d="M 6,-1 L 4.237,2.572 L 0.295,3.144 L 3.148,5.925 L 2.475,9.851 L 6,7.997 L 9.526,9.851 L 8.853,5.925 L 11.705,3.144 L 7.763,2.572 L 6,-1 " style="fill: #6da5d2; fill-opacity: 1.0; stroke: none" transform="matrix(1.0,0.0,0.0,1.0,256.195,-1.1190000000000002)"><set attributeName="opacity" to="1"/></path><path id="id7febff7b29676506affdd06a" d="M 4,0 L 2.531,2.977 L -0.754,3.453 L 1.623,5.769 L 1.062,9.038 L 4,7.493 L 6.938,9.038 L 6.377,5.766 L 8.754,3.449 L 5.469,2.973 L 4,-0.004 " style="fill: #6da5d2; fill-opacity: 1.0; stroke: none" transform="matrix(1.0,0.0,0.0,1.0,482.195,-47.118)"><set attributeName="opacity" to="1"/></path><path id="idc801064118372cf6e2343ca5" d="M 14,0 L 9.886,8.336 L 0.686,9.672 L 7.343,16.161 L 5.773,25.324 L 14.001,20.998 L 22.229,25.324 L 20.658,16.161 L 27.315,9.672 L 18.115,8.336 L 14.001,0 " style="fill: #6da5d2; fill-opacity: 1.0; stroke: none" transform="matrix(1.0,0.0,0.0,1.0,624.195,-123.118)"><set attributeName="opacity" to="1"/></path><path id="id404155ae23f36a8ed383f775" d="M 4,0 L 2.531,2.977 L -0.754,3.453 L 1.623,5.769 L 1.062,9.038 L 4,7.493 L 6.938,9.038 L 6.377,5.766 L 8.754,3.449 L 5.469,2.973 L 4,-0.004 " style="fill: #6da5d2; fill-opacity: 1.0; stroke: none" transform="matrix(1.0,0.0,0.0,1.0,554.195,-27.118)"><set attributeName="opacity" to="1"/></path><path id="id3653bd3568504be1b9680b1e" d="M 2,0 L 1.119,1.786 L -0.852,2.072 L 0.574,3.461 L 0.238,5.424 L 2.001,4.497 L 3.764,5.423 L 3.43,3.46 L 4.853,2.071 L 2.882,1.785 L 2.001,-0.001 " style="fill: #6da5d2; fill-opacity: 1.0; stroke: none" transform="matrix(1.0,0.0,0.0,1.0,462.195,12.881)"><set attributeName="opacity" to="1"/></path><path id="ida568d4465ea625fffcfa8a45" d="M 2,-2 L 1.413,-0.81 L 0.099,-0.621 L 1.049,0.306 L 0.839,1.615 L 2.01,0.997 L 3.184,1.615 L 2.96,0.306 L 3.911,-0.621 L 2.597,-0.81 L 2.012,-2 " style="fill: #6da5d2; fill-opacity: 1.0; stroke: none" transform="matrix(1.0,0.0,0.0,1.0,376.195,30.881)"><set attributeName="opacity" to="1"/></path><path id="id46429c72d0a48ba07b953449" d="M 3,-2 L 2.119,-0.214 L 0.148,0.072 L 1.574,1.462 L 1.238,3.424 L 3.001,2.497 L 4.764,3.424 L 4.428,1.461 L 5.854,0.071 L 3.883,-0.215 L 3.002,-2 " style="fill: #6da5d2; fill-opacity: 1.0; stroke: none" transform="matrix(1.0,0.0,0.0,1.0,-243.804,140.881)"><set attributeName="opacity" to="1"/></path><path id="ida546d6894a07e74478ccb0c9" d="M 3,-3 L 2.119,-1.214 L 0.148,-0.928 L 1.574,0.462 L 1.238,2.424 L 3.001,1.497 L 4.764,2.424 L 4.428,0.461 L 5.854,-0.929 L 3.883,-1.215 L 3.002,-3 " style="fill: #6da5d2; fill-opacity: 1.0; stroke: none" transform="matrix(1.0,0.0,0.0,1.0,168.195,134.881)"><set attributeName="opacity" to="1"/></path><path id="idb3d1e9e117cca833a049d60e" d="M 5,-2 L 3.531,0.977 L 0.246,1.453 L 2.623,3.77 L 2.062,7.041 L 5,5.496 L 7.938,7.041 L 7.377,3.769 L 9.754,1.452 L 6.469,0.975 L 5,-2.002 " style="fill: #6da5d2; fill-opacity: 1.0; stroke: none" transform="matrix(1.0,0.0,0.0,1.0,-567.804,162.881)"><set attributeName="opacity" to="1"/></path><path id="id829be58249b9373b4698c50a" d="M 4,-1 L 2.826,1.381 L 0.198,1.762 L 2.099,3.615 L 1.65,6.233 L 4.001,4.998 L 6.352,6.233 L 5.904,3.615 L 7.806,1.761 L 5.178,1.38 L 4.004,-1.001 " style="fill: #6da5d2; fill-opacity: 1.0; stroke: none" transform="matrix(1.0,0.0,0.0,1.0,302.195,174.881)"><set attributeName="opacity" to="1"/></path><path id="id40326d7b9bb837e9e7430757" d="M 2,-1 L 1.413,0.19 L 0.099,0.38 L 1.049,1.307 L 0.839,2.615 L 2.01,1.998 L 3.184,2.615 L 2.96,1.306 L 3.911,0.379 L 2.597,0.189 L 2.012,-1.001 " style="fill: #6da5d2; fill-opacity: 1.0; stroke: none" transform="matrix(1.0,0.0,0.0,1.0,408.195,112.881)"><set attributeName="opacity" to="1"/></path></g></g><path id="id120e3f164d73c4ca5124bc71" d="M 5.673,-99.149 L 5.673,-83.05 L -11.024,-83.05 L -11.024,26.248 L -26.024,26.248 L -26.024,-39.55 L -54.224,-51.25 L -54.224,-8.75 L -55.324,-8.75 L -55.324,-28.649 L -66.121,-28.649 L -66.121,-8.75 L -73.499,-8.75 L -73.499,-9.5 L -80.045,-9.5 L -80.045,-20.558 L -86.644,-20.558 L -86.644,-1.958 L -86.696,-1.948 L -87.494,-1.948 L -87.494,-41.547 L -108.393,-30.648 L -108.393,30.751 L -119.593,30.751 L -119.593,-71.349 L -131.991,-71.349 L -131.991,-86.349 L -145.89,-86.349 L -145.89,-71.349 L -151.688,-71.349 L -151.688,30.75 L -159.986,30.75 L -159.986,16.851 L -178.185,29.851 L -178.185,-3.947 L -182.884,-3.947 L -182.884,-10.447 L -185.783,-10.447 L -185.783,-3.947 L -188.682,-3.947 L -188.682,-10.447 L -191.581,-10.447 L -191.581,-3.947 L -194.879,-3.947 L -194.879,15.351 L -217.278,15.351 L -217.278,-51.849 L -223.278,-51.849 L -223.278,-71.748 L -229.677,-71.748 L -229.677,-80.147 L -234.576,-80.147 L -235.275,-90.246 L -247.174,-80.347 L -247.174,-80.248 L -252.174,-80.248 L -252.174,-71.849 L -258.472,-71.849 L -258.472,-51.95 L -264.472,-51.95 L -264.472,-37.652 L -268.472,-33.952 L -268.472,6.846 L -278.572,6.846 L -278.572,-2.553 L -286.971,-2.553 L -286.971,6.846 L -289.571,6.846 L -289.571,-19.154 L -324.171,-33.654 L -324.171,-90.253 L -332.271,-90.253 L -332.271,-94.051 L -356.771,-94.051 L -356.771,-90.253 L -362.371,-90.253 L -362.371,19.947 L -378.669,19.947 L -378.669,-60.553 L -383.868,-60.553 L -383.868,-64.452 L -408.666,-64.452 L -408.666,-77.75 L -417.666,-77.75 L -417.666,-60.452 L -425.166,-60.452 L -425.166,20.048 L -430.365,20.048 L -430.365,-10.75 L -436.961,-16.349 L -436.961,-23.547 C -436.961,-23.547 -437.86,-24.344 -439.66,-25.243 L -439.66,-50.641 C -439.66,-50.641 -440.357,-52.141 -441.955,-53.641 L -441.955,-56.54 C -441.955,-56.54 -442.354,-57.439 -443.354,-58.338 L -443.354,-61.136 C -443.354,-61.136 -443.95,-62.434 -445.45,-63.434 L -445.45,-65.133 C -445.45,-65.133 -445.95,-66.232 -447.25,-66.932 L -447.25,-68.23 C -447.25,-68.23 -447.649,-69.629 -448.846,-70.326 L -448.846,-73.124 C -448.846,-73.124 -449.245,-75.023 -450.245,-75.321 L -450.149,-89.619 C -450.149,-89.619 -450.298,-90.215 -450.42,-90.215 C -450.47,-90.215 -450.515,-90.113 -450.543,-89.82 C -450.639,-88.921 -450.937,-76.322 -450.937,-75.322 C -451.937,-75.024 -452.437,-73.524 -452.437,-73.125 L -452.437,-69.925 C -453.237,-69.326 -453.537,-68.427 -453.537,-68.227 L -453.537,-66.527 C -454.337,-65.928 -454.736,-65.329 -454.736,-65.031 L -454.736,-62.831 C -455.736,-62.033 -456.236,-61.235 -456.236,-60.937 L -456.236,-58.139 C -457.036,-57.341 -457.435,-56.641 -457.435,-56.343 L -457.435,-53.444 C -458.834,-52.244 -459.334,-50.946 -459.334,-50.446 L -459.334,-24.246 C -459.932,-23.949 -460.53,-23.652 -461.128,-23.355 L -461.128,-16.557 L -467.628,-10.658 L -467.628,98.438 L -80.102,98.438 L -80.102,98.546 L 79.898,98.546 L 79.898,98.498 L 80.125,98.498 L 80.125,99.142 L 467.724,99.142 L 467.724,-19.858 L 461.426,-19.858 L 461.426,-1.259 L 461.032,-1.259 L 460.972,-1.253 L 460.174,-1.253 L 460.174,-40.852 L 439.275,-29.953 L 439.275,31.446 L 428.076,31.446 L 428.076,-70.654 L 415.677,-70.654 L 415.677,-85.654 L 401.778,-85.654 L 401.778,-70.654 L 396.079,-70.654 L 396.079,31.445 L 387.781,31.445 L 387.781,17.546 L 369.483,30.445 L 369.483,-3.353 L 364.784,-3.353 L 364.784,-9.853 L 361.885,-9.853 L 361.885,-3.353 L 358.986,-3.353 L 358.986,-9.853 L 356.087,-9.853 L 356.087,-3.353 L 352.789,-3.353 L 352.789,15.945 L 330.39,15.945 L 330.39,-51.255 L 324.39,-51.255 L 324.39,-71.154 L 318.092,-71.154 L 318.092,-79.553 L 313.193,-79.553 L 312.494,-89.652 L 300.595,-79.753 L 300.595,-79.654 L 295.595,-79.654 L 295.595,-71.255 L 289.297,-71.255 L 289.297,-51.356 L 283.297,-51.356 L 283.297,-36.856 L 279.297,-33.156 L 279.297,7.642 L 269.199,7.642 L 269.199,-1.757 L 260.8,-1.757 L 260.8,7.642 L 258.202,7.642 L 258.202,-18.358 L 223.505,-32.858 L 223.505,-89.457 L 215.407,-89.457 L 215.407,-93.255 L 190.907,-93.255 L 190.907,-89.457 L 185.309,-89.457 L 185.309,20.743 L 169.011,20.743 L 169.011,-59.857 L 163.812,-59.857 L 163.812,-63.756 L 139.113,-63.756 L 139.113,-77.054 L 130.113,-77.054 L 130.113,-59.854 L 122.613,-59.854 L 122.613,20.646 L 117.413,20.646 L 117.413,-10.152 L 110.814,-15.751 L 110.814,-22.949 C 110.814,-22.949 109.915,-23.746 108.117,-24.645 L 108.117,-49.845 C 108.117,-49.845 107.417,-51.345 105.818,-52.845 L 105.818,-55.744 C 105.818,-55.744 105.419,-56.643 104.419,-57.542 L 104.419,-60.34 C 104.419,-60.34 103.82,-61.638 102.32,-62.638 L 102.32,-64.434 C 102.32,-64.434 101.82,-65.533 100.522,-66.233 L 100.522,-67.531 C 100.522,-67.531 100.123,-68.93 98.926,-69.627 L 98.926,-72.425 C 98.926,-72.425 98.527,-74.324 97.527,-74.622 L 97.626,-88.92 C 97.626,-88.92 97.479,-89.516 97.359,-89.516 C 97.308,-89.516 97.262,-89.414 97.234,-89.121 C 97.135,-88.222 96.837,-75.623 96.837,-74.623 C 95.837,-74.325 95.337,-72.825 95.337,-72.426 L 95.337,-69.226 C 94.539,-68.627 94.241,-67.728 94.241,-67.528 L 94.241,-65.828 C 93.443,-65.229 93.044,-64.63 93.044,-64.332 L 93.044,-62.132 C 92.044,-61.334 91.544,-60.536 91.544,-60.238 L 91.544,-57.44 C 90.746,-56.642 90.347,-55.942 90.347,-55.644 L 90.347,-52.745 C 88.948,-51.545 88.448,-50.247 88.448,-49.747 L 88.448,-23.547 C 87.849,-23.25 87.25,-22.953 86.651,-22.656 L 86.651,-15.858 L 80.151,-9.96 L 80.151,33.493 L 79.924,33.493 L 79.924,32.042 L 43.224,11.342 L 43.219,11.342 L 43.219,26.24 L 32.122,26.24 L 32.122,-83.058 L 24.424,-83.058 L 24.424,-99.157 L 5.724,-99.157 " style="fill: url(#id120e3f164d73c4ca5124bc71lgf); stroke: none" transform="matrix(1.1286383244864249,0.0,0.0,1.1286383244864249,441.9655765311032,154.0018215958112)"><set attributeName="opacity" to="1"/></path><g id="id7b330193dc1f11d09941d668" transform="matrix(3.403556771545828,0.0,0.0,1.5443998642285832,799.424,314.999)"><path id="id9eb34a1ca2e4509d44a3fdf4" d="M 644.3,1004.4 L 1192.3,1004.4 L 1192.3,1022.299 L 644.3,1022.299 L 644.3,1004.4 M 644.3,1004.4 Z" style="fill: url(#id9eb34a1ca2e4509d44a3fdf4lgf); stroke: none" transform="matrix(1.0,0.0,0.0,1.0,-918.3,-1061.849)"><set attributeName="opacity" to="1"/></path><path id="id60c25b38f896e1f43a396890" d="M 644.3,1017.4 L 1192.3,1017.4 L 1192.3,1119.299 L 644.3,1119.299 L 644.3,1017.4 M 644.3,1017.4 Z" style="fill: url(#id60c25b38f896e1f43a396890lgf); stroke: none" transform="matrix(1.0,0.0,0.0,1.0,-918.3,-1061.849)"><set attributeName="opacity" to="1"/></path><path id="id9940c2a2c48758be3a073901" d="M 644.3,1017.3 L 1192.3,1017.3 L 1192.3,1027.3 L 644.3,1027.3 L 644.3,1017.3 M 644.3,1017.3 Z" style="fill: url(#id9940c2a2c48758be3a073901lgf); stroke: none" transform="matrix(0.9990875912408756,0.0,0.0,0.5,-917.962,-557.65)"><set attributeName="opacity" to="1"/></path></g></g><g id="idfb997b608ae167ed3a15fbd9" transform="matrix(1.0,0.0,0.0,1.0,5.0,330.203)"><g id="id9f7c160a8f2e8457d061d475" transform="matrix(1.0,0.0,0.0,1.0,70.498,12.399)"><g id="id47eb84a756cbbd67e45f32ea" transform="matrix(1.0,0.0,0.0,1.0,-58.1,0.0)"><path id="idcedb273ca9f24519c489e290" d="M 23.5,12.5 C 23.5,18.684 18.531,23.697 12.402,23.697 C 6.272,23.697 1.303,18.685 1.303,12.501 C 1.303,6.316 6.272,1.302 12.402,1.302 C 18.531,1.302 23.5,6.316 23.5,12.501 L 23.5,12.501 M 23.5,12.501 " style="fill: #38393a; fill-opacity: 1.0; stroke: none" transform="matrix(1.0,0.0,0.0,1.0,-12.399,-12.399)"/><g id="id9624f36348af563d8c579b13" transform="matrix(1.0,0.0,0.0,1.0,-0.0,-0.0)"><path id="id398583b9750cdb35bf138a8b" d="M 12.399,0.5 C 5.8,0.5 0.5,5.8 0.5,12.399 C 0.5,18.999 5.8,24.297 12.399,24.297 C 18.999,24.297 24.296,18.999 24.296,12.399 C 24.296,5.799 18.897,0.5 12.397,0.5 L 12.397,0.5 M 18.296,16 C 17.696,17 16.997,18.1 16.798,18.397 L 16.798,18.497 L 16.698,18.497 C 16.299,18.696 14.899,19.095 14.201,19.095 C 14.201,19.095 14.102,19.095 14.102,19.095 L 14.003,19.095 C 13.203,18.798 11.403,18.198 10.804,17.999 C 9.804,18.398 8.804,18.898 7.804,19.398 C 7.304,19.597 6.904,19.894 6.404,20.093 C 6.404,20.093 6.404,20.093 6.404,20.093 C 6.404,20.093 5.404,20.693 5.204,20.693 L 4.905,20.693 L 4.905,20.396 C 4.905,19.796 5.004,18.397 5.103,18.1 C 6.401,4.1 11.6,2.902 11.798,2.802 C 11.996,2.802 12.296,2.703 12.494,2.703 L 12.593,2.703 C 12.692,2.703 12.692,2.703 12.791,2.703 C 17.09,2.703 21.289,13.703 21.488,14.203 C 21.588,14.401 21.787,15.099 21.887,15.198 L 21.987,15.498 L 18.289,15.997 L 18.289,15.997 M 12.39,0.497 " style="fill: #ffbc00; fill-opacity: 1.0; stroke: none" transform="matrix(1.0,0.0,0.0,1.0,-12.399,-12.3985)"/><path id="id756a95c520ab11498a8c6094" d="M 13.899,7.8 C 13.201,7.8 12.602,7.501 12.602,7.501 L 11.503,7.001 L 12.701,7.001 C 13.099,7.001 13.297,6.803 13.495,6.504 C 13.693,6.205 13.594,5.906 13.495,5.706 C 13.195,5.206 12.895,5.008 12.498,5.008 C 11.498,5.008 10.399,6.107 9.899,6.706 C 9.3,7.606 8.8,8.705 8.403,10.005 C 9.601,9.406 11.899,8.507 15.798,7.809 L 15.996,7.809 L 16.694,9.809 L 16.397,9.908 C 10.797,10.908 8.198,12.606 7.599,13.003 C 7.3,14.303 7.102,15.803 6.904,17.3 L 10.303,16.101 L 12.303,16.8 C 13.103,17.097 13.603,17.197 14.002,17.396 C 14.601,17.396 15.799,17.099 16.198,16.9 C 16.397,16.603 17.397,15.103 17.796,14.303 L 17.896,14.204 L 17.996,14.204 C 18.695,14.105 19.294,14.006 19.693,14.006 C 18.994,11.907 17.395,8.407 15.995,6.507 C 15.495,7.606 14.495,7.806 13.896,7.806 L 13.896,7.806 M 16.395,13.305 C 15.895,14.404 14.296,15.003 13.098,15.003 C 12.499,15.003 11.999,14.805 11.602,14.607 L 11.404,14.508 L 12.204,13.008 L 12.504,13.206 C 12.603,13.305 12.901,13.404 13.201,13.404 C 14.001,13.404 14.801,13.005 14.9,12.705 L 14.999,12.405 L 16.596,13.103 L 16.397,13.301 L 16.397,13.301 M 13.897,7.801 " style="fill: #ffbc00; fill-opacity: 1.0; stroke: none" transform="matrix(1.0,0.0,0.0,1.0,-12.399000000000001,-12.3985)"/></g></g><g id="idb981ce5d086b153cb46c0d2c" transform="matrix(1.0,0.0,0.0,1.0,14.495,-0.044)"><path id="id6ca5100064e92d2778b57100" d="M 123.5,7.5 L 116.5,7.5 C 115,7.5 113.803,8.599 113.803,9.996 L 113.803,14.596 C 113.803,15.993 115,17.091 116.5,17.091 L 123.5,17.091 C 125,17.091 126.197,15.992 126.197,14.595 L 126.197,9.995 C 126.197,8.695 125,7.497 123.5,7.497 L 123.5,7.497 M 123.303,13.997 C 123.303,14.497 122.903,14.797 122.403,14.797 L 117.503,14.797 C 117.003,14.797 116.603,14.4 116.603,14 L 116.603,10.603 C 116.603,10.103 117.003,9.706 117.503,9.706 L 122.403,9.706 C 122.903,9.706 123.303,10.105 123.303,10.605 L 123.303,14.004 L 123.303,14.004 M 138,7.604 L 138,14.004 L 133.101,8.504 C 132.503,7.705 131.503,7.606 131.204,7.507 L 131.204,7.507 L 128.204,7.507 L 128.204,17.007 L 131.204,17.007 L 131.204,10.608 C 132.103,11.608 135.302,15.307 136.201,16.106 C 137.4,17.106 138.099,17.106 138.099,17.106 L 138.099,17.106 L 140.998,17.106 L 140.998,7.606 L 137.998,7.606 L 137.998,7.606 M 52.399,14.106 L 47.5,8.606 C 46.903,7.807 45.903,7.708 45.605,7.609 L 45.605,7.609 L 42.605,7.609 L 42.605,17.109 L 45.605,17.109 L 45.605,10.71 C 46.504,11.71 49.702,15.409 50.601,16.208 C 51.801,17.208 52.501,17.208 52.501,17.208 L 52.501,17.208 L 55.4,17.208 L 55.4,7.608 L 52.4,7.608 L 52.4,14.108 L 52.4,14.108 M 57.299,17.107 L 60.299,17.107 L 60.299,7.607 L 57.299,7.607 L 57.299,17.107 L 57.299,17.107 M 89.097,9.908 L 92.997,9.908 L 92.997,17.107 L 95.997,17.107 L 95.997,9.908 L 99.796,9.908 L 99.796,7.61 L 89.096,7.61 L 89.096,9.908 L 89.096,9.908 M 112.195,10.507 C 112.392,10.207 112.592,10.108 112.691,9.708 C 112.99,8.408 111.09,7.71 110.291,7.71 L 108.492,7.71 L 103.893,7.71 L 103.893,7.71 L 100.893,7.71 L 100.893,7.71 L 100.893,10.01 L 100.893,17.208 L 103.893,17.208 L 103.893,9.908 L 108.992,9.908 L 106.193,13.007 L 109.89,17.107 L 113.587,17.107 L 109.89,13.007 L 112.189,10.507 L 112.189,10.507 M 82.689,7.607 L 82.689,7.607 L 82.689,7.607 L 77.689,17.107 L 80.886,17.207 L 84.286,10.707 L 87.686,17.207 L 90.883,17.107 L 85.883,7.607 L 82.686,7.607 L 82.686,7.607 M 33.987,7.607 L 33.987,7.607 L 33.987,7.607 L 28.987,17.107 L 32.187,17.207 L 35.586,10.707 L 38.985,17.207 L 42.185,17.107 L 37.185,7.607 L 33.985,7.607 L 33.985,7.607 M 74.384,7.607 L 74.384,7.607 C 74.085,7.607 73.388,7.706 72.888,8.404 L 69.789,13.103 L 66.69,8.404 C 66.29,7.706 65.593,7.607 65.294,7.607 L 65.294,7.607 L 62.294,7.607 L 62.294,17.106 L 65.294,17.106 L 65.294,10.907 L 69.194,17.106 L 69.694,17.106 L 69.793,17.106 L 70.293,17.106 L 74.293,10.806 L 74.293,17.106 L 77.293,17.106 L 77.293,7.607 L 74.494,7.607 C 74.593,7.607 74.593,7.607 74.396,7.607 L 74.396,7.607 M 123.494,7.508 " style="fill: #ffffff; fill-opacity: 1.0; stroke: none" transform="matrix(1.0,0.0,0.0,1.0,-84.9945,-12.3535)"/><path id="id10ed11d01ff8c91a9516480d" d="M 123.5,7.5 L 116.5,7.5 C 115,7.5 113.803,8.599 113.803,9.996 L 113.803,14.596 C 113.803,15.993 115,17.091 116.5,17.091 L 123.5,17.091 C 125,17.091 126.197,15.992 126.197,14.595 L 126.197,9.995 C 126.197,8.695 125,7.497 123.5,7.497 L 123.5,7.497 M 123.303,13.997 C 123.303,14.497 122.903,14.797 122.403,14.797 L 117.503,14.797 C 117.003,14.797 116.603,14.4 116.603,14 L 116.603,10.603 C 116.603,10.103 117.003,9.706 117.503,9.706 L 122.403,9.706 C 122.903,9.706 123.303,10.105 123.303,10.605 L 123.303,14.004 L 123.303,14.004 M 138,7.604 L 138,14.004 L 133.101,8.504 C 132.503,7.705 131.503,7.606 131.204,7.507 L 131.204,7.507 L 128.204,7.507 L 128.204,17.007 L 131.204,17.007 L 131.204,10.608 C 132.103,11.608 135.302,15.307 136.201,16.106 C 137.4,17.106 138.099,17.106 138.099,17.106 L 138.099,17.106 L 140.998,17.106 L 140.998,7.606 L 137.998,7.606 L 137.998,7.606 M 52.399,14.106 L 47.5,8.606 C 46.903,7.807 45.903,7.708 45.605,7.609 L 45.605,7.609 L 42.605,7.609 L 42.605,17.109 L 45.605,17.109 L 45.605,10.71 C 46.504,11.71 49.702,15.409 50.601,16.208 C 51.801,17.208 52.501,17.208 52.501,17.208 L 52.501,17.208 L 55.4,17.208 L 55.4,7.608 L 52.4,7.608 L 52.4,14.108 L 52.4,14.108 M 57.299,17.107 L 60.299,17.107 L 60.299,7.607 L 57.299,7.607 L 57.299,17.107 L 57.299,17.107 M 89.097,9.908 L 92.997,9.908 L 92.997,17.107 L 95.997,17.107 L 95.997,9.908 L 99.796,9.908 L 99.796,7.61 L 89.096,7.61 L 89.096,9.908 L 89.096,9.908 M 112.195,10.507 C 112.392,10.207 112.592,10.108 112.691,9.708 C 112.99,8.408 111.09,7.71 110.291,7.71 L 108.492,7.71 L 103.893,7.71 L 103.893,7.71 L 100.893,7.71 L 100.893,7.71 L 100.893,10.01 L 100.893,17.208 L 103.893,17.208 L 103.893,9.908 L 108.992,9.908 L 106.193,13.007 L 109.89,17.107 L 113.587,17.107 L 109.89,13.007 L 112.189,10.507 L 112.189,10.507 M 82.689,7.607 L 82.689,7.607 L 82.689,7.607 L 77.689,17.107 L 80.886,17.207 L 84.286,10.707 L 87.686,17.207 L 90.883,17.107 L 85.883,7.607 L 82.686,7.607 L 82.686,7.607 M 33.987,7.607 L 33.987,7.607 L 33.987,7.607 L 28.987,17.107 L 32.187,17.207 L 35.586,10.707 L 38.985,17.207 L 42.185,17.107 L 37.185,7.607 L 33.985,7.607 L 33.985,7.607 M 74.384,7.607 L 74.384,7.607 C 74.085,7.607 73.388,7.706 72.888,8.404 L 69.789,13.103 L 66.69,8.404 C 66.29,7.706 65.593,7.607 65.294,7.607 L 65.294,7.607 L 62.294,7.607 L 62.294,17.106 L 65.294,17.106 L 65.294,10.907 L 69.194,17.106 L 69.694,17.106 L 69.793,17.106 L 70.293,17.106 L 74.293,10.806 L 74.293,17.106 L 77.293,17.106 L 77.293,7.607 L 74.494,7.607 C 74.593,7.607 74.593,7.607 74.396,7.607 L 74.396,7.607 M 123.494,7.508 " style="fill: none; stroke: #000000; stroke-width: 0.5; stroke-opacity: 1.0" transform="matrix(1.0,0.0,0.0,1.0,-84.9945,-12.3535)"/></g><path id="idc06e2f8574070b9e33f0f388" d="M 12.399,0.5 C 18.999,0.5 24.296,5.8 24.296,12.399 C 24.296,18.999 18.998,24.297 12.398,24.297 C 5.798,24.297 0.499,18.898 0.499,12.398 C 0.499,5.898 5.799,0.499 12.398,0.499 M 12.398,-0.001 C 5.599,-0.001 -0,5.598 -0,12.397 C -0,19.196 5.599,24.796 12.398,24.796 C 19.197,24.796 24.796,19.196 24.796,12.398 C 24.796,5.599 19.197,-0.001 12.397,-0.001 L 12.397,-0.001 L 12.397,-0.001 M 12.397,0.499 " style="fill: #000000; fill-opacity: 1.0; stroke: none" transform="matrix(1.0,0.0,0.0,1.0,-70.49849999999999,-12.398)"/></g></g></g></svg>