<?xml version="1.0" encoding="UTF-8"?>
<svg version="1.1" viewBox="0 0 640 360" preserveAspectRatio="xMidYMid meet" xmlns="http://www.w3.org/2000/svg" xmlns:xlink="http://www.w3.org/1999/xlink" stroke-linejoin="round" stroke-linecap="round"><!--SVG SMIL Animation Export (c) 2017 Animatron INC--><!--Version 1.0 by squared9--><defs><mask id="canvasMask" maskUnits="userSpaceOnUse"><rect x="0" y="0" width="640px" height="360px" fill="#FFFFFF" stroke="none"/></mask><linearGradient gradientUnits="userSpaceOnUse" id="idaca13058f0b055e0cd5201f7lgf" x1="177.29480999999998" y1="6.47559" x2="179.28526" y2="177.30119"><stop offset="0.0%" stop-color="#4c4cff" stop-opacity="1.0"/><stop offset="100.0%" stop-color="#ffffff" stop-opacity="1.0"/></linearGradient><linearGradient gradientUnits="userSpaceOnUse" id="id5d58f674bad779ede128410dlgf" x1="175.8834" y1="-61.065509999999996" x2="175.41293" y2="364.74514999999997"><stop offset="0.0%" stop-color="#4c4cff" stop-opacity="1.0"/><stop offset="100.0%" stop-color="#ffffff" stop-opacity="1.0"/></linearGradient><linearGradient gradientUnits="userSpaceOnUse" id="id56e1711c0172c8e25fe1ebe6lgf" x1="20.52106932" y1="19.0996472" x2="18.88707853" y2="74.0362712"><stop offset="0.0%" stop-color="#fce4c7" stop-opacity="1.0"/><stop offset="100.0%" stop-color="#fcd5c7" stop-opacity="1.0"/></linearGradient><linearGradient gradientUnits="userSpaceOnUse" id="id822a99272cd64e5219c1d7e6lgf" x1="9.250208099999998" y1="-0.3383881" x2="8.6773949" y2="13.8430219"><stop offset="0.0%" stop-color="#807158" stop-opacity="1.0"/><stop offset="100.0%" stop-color="#ffffff" stop-opacity="0.04"/></linearGradient><linearGradient gradientUnits="userSpaceOnUse" id="id8ba3e06f9cb2ea45fd0d7152lgf" x1="9.250208099999998" y1="-0.3383881" x2="8.6773949" y2="13.8430219"><stop offset="0.0%" stop-color="#807158" stop-opacity="1.0"/><stop offset="100.0%" stop-color="#ffffff" stop-opacity="0.04"/></linearGradient><radialGradient gradientUnits="userSpaceOnUse" id="ida29e10ad34cc826fc3218a80rgf" cx="7.0144464" cy="8.8481296" r="26.2341968" fx="7.0144464" fy="8.8481296"><stop offset="0.0%" stop-color="#fef9da" stop-opacity="1.0"/><stop offset="100.0%" stop-color="#ffeb3b" stop-opacity="1.0"/></radialGradient></defs><rect fill="#ffffff" stroke="none" x="0" y="0" width="640px" height="360px"/><g id="id9fdd384e2363dff0cacac902" mask="url(#canvasMask)"><g id="id126a82b5c6b05e8b98fdc70c" transform="matrix(1.0,0.0,0.0,1.0,-0.0,-0.0)"><path id="idaca13058f0b055e0cd5201f7" d="M 0,0 L 361.9,0 L 361.9,232.1 L 0,232.1 L 0,0 M 0,0 Z" style="fill: url(#idaca13058f0b055e0cd5201f7lgf); stroke: none" transform="matrix(1.8245965266648247,0.0,0.0,1.732633981042654,-8.505741500000056,-24.630173499999984)"><set attributeName="opacity" to="1"/></path><path id="id5d58f674bad779ede128410d" d="M 0,0 L 361.9,0 L 361.9,232.1 L 0,232.1 L 0,0 M 0,0 Z" style="fill: url(#id5d58f674bad779ede128410dlgf); stroke: none" transform="matrix(1.8264714009394862,0.0,0.0,-1.1489672554933217,-8.394999999999982,432.67464999999993)"><set attributeName="opacity" to="0.476"/></path></g><g id="ide9786ec6c51fa2ab3835a562" transform="matrix(1.0,0.0,0.0,1.0,-0.0,-0.0)"><g id="id5a6bb6f2944728ec71a6e6a0" transform="matrix(2.4852227435321286,0.0,0.0,1.7559702428928146,82.01349704454871,251.4034387903629)"><set attributeName="opacity" to="1"/><path id="id9f420f1916903d72b3cfe465" d="M 372.012,120.347 C 372.012,120.347 378.213,123.306 379.95,130.978 " style="fill: none; stroke: #82c2ee; stroke-width: 3.0; stroke-opacity: 1.0" transform="matrix(0.7193398003386512,-0.6946583704589973,0.6946583704589973,0.7193398003386512,-347.93050502599823,175.0753087208515)"/><path id="idd64679d3b2984afeaf0858b7" d="M 372.012,120.347 C 372.012,120.347 378.213,123.306 379.95,130.978 " style="fill: none; stroke: #82c2ee; stroke-width: 3.0; stroke-opacity: 1.0" transform="matrix(-0.7431448254773944,-0.6691306063588581,-0.6691306063588581,0.7431448254773944,354.51606431638714,162.448681498441)"/><g id="iddc3a43b7fe6c17c9bc42b9b0" transform="matrix(1.0,0.0,-0.0028913855503876727,1.0,5.076310858542636,39.754)"><path id="id44dc404b7e6d91de98ad538e" d="M 0,0 L 1.822,0 L 1.822,7.237 L 0.339,7.029 L 0.001,0 M 0.001,0 " style="fill: #e5e5e5; fill-opacity: 1.0; stroke: none" transform="matrix(1.0,0.0,0.0,1.0,-2.5742000000000003,6.809200000000001)"/><path id="idf138855f63e36ea9a75ad13a" d="M 0,0 C 0.604,0 -0.268,-1.339 1.74,-1.472 C 3.748,-1.605 3.603,0.002 4.284,0.002 C 4.284,6.912 4.317,25.229 4.317,25.229 C 4.317,25.229 1.27,26.061 1.27,26.061 C 1.27,26.061 -0.002,6.911 -0.002,0.001 M -0.002,0.001 " style="fill: #a19882; fill-opacity: 1.0; stroke: none" transform="matrix(1.0,0.0,0.0,0.9013154560647135,-4.2178,-12.845720502134126)"/><path id="id1e8fb34880b6796c3448f0f2" d="M 377.22,167.973 C 376.682,167.973 376.154,167.981 375.691,167.981 C 373.732,167.981 373.78,168.537 373.78,168.867 C 373.78,168.898 373.794,168.929 373.822,168.959 L 380.838,168.959 C 380.864,168.929 380.876,168.898 380.874,168.867 C 380.802,168.062 378.964,167.97 377.227,167.97 L 377.227,167.97 " style="fill: #56392a; fill-opacity: 1.0; stroke: none" transform="matrix(1.0,0.0,0.0,1.0,-376.65630000000004,-154.7875)"/><path id="id38f72e48af9de6c599d7e374" d="M 0,0 L 1.337,0 L 1.337,6.463 L 0,6.463 L 0,0 M 0,0 Z" style="fill: none; stroke: none" transform="matrix(1.0,0.0,0.0,1.0,-2.5707,7.321200000000001)"/></g><g id="id21f5735b39f7a20fc79db789" transform="matrix(-1.0,-0.0,-0.004203182518003005,1.0,-4.082257036006959,39.629)"><path id="id70f7798585fdbebae672e488" d="M 0,0 L 1.822,0 L 1.822,7.237 L 0.339,7.029 L 0.001,0 M 0.001,0 " style="fill: #e5e5e5; fill-opacity: 1.0; stroke: none" transform="matrix(1.0,0.0,0.0,1.0,-2.5742000000000003,6.809200000000001)"/><path id="idbb3cc76defbbb5cd7d59fa72" d="M 0,0 C 0.604,0 -0.268,-1.339 1.74,-1.472 C 3.748,-1.605 3.603,0.002 4.284,0.002 C 4.284,6.912 4.317,25.229 4.317,25.229 C 4.317,25.229 1.27,26.061 1.27,26.061 C 1.27,26.061 -0.002,6.911 -0.002,0.001 M -0.002,0.001 " style="fill: #a19882; fill-opacity: 1.0; stroke: none" transform="matrix(1.0,0.0,0.0,0.9013154560647135,-4.2178,-12.845720502134126)"/><path id="id8db2cf9375dbf553bcc3de4b" d="M 377.22,167.973 C 376.682,167.973 376.154,167.981 375.691,167.981 C 373.732,167.981 373.78,168.537 373.78,168.867 C 373.78,168.898 373.794,168.929 373.822,168.959 L 380.838,168.959 C 380.864,168.929 380.876,168.898 380.874,168.867 C 380.802,168.062 378.964,167.97 377.227,167.97 L 377.227,167.97 " style="fill: #56392a; fill-opacity: 1.0; stroke: none" transform="matrix(1.0,0.0,0.0,1.0,-376.65630000000004,-154.7875)"/><path id="ideb871cf29cc6bcceaa9dd0aa" d="M 0,0 L 1.337,0 L 1.337,6.463 L 0,6.463 L 0,0 M 0,0 Z" style="fill: none; stroke: none" transform="matrix(1.0,0.0,0.0,1.0,-2.5707,7.321200000000001)"/></g><g id="idcf6c2446fa3cf73619b25091" transform="matrix(0.9530869472685044,0.0,0.0,1.0529555515630087,0.6165621106690982,15.76063322899816)"><path id="id2262c1323841227fe3794d01" d="M 0,0 L 4.584,0 L 4.584,3.725 L 0,3.725 L 0,0 M 0,0 Z" style="fill: #e9d3b8; fill-opacity: 1.0; stroke: none" transform="matrix(1.0,0.0,0.0,1.0,-1.8914000000000002,-15.1866)"/><g id="id0f65415c9b53fa2ba9691d7a" transform="matrix(1.0,0.0,0.0,1.0,-0.0,-0.0)"><path id="id523789c6fadf59b147ce3985" d="M 371.705,117.724 C 371.705,117.724 371.705,117.724 371.705,117.724 L 371.705,117.724 C 371.705,117.724 371.705,117.724 371.705,117.724 L 371.705,117.724 M 366.756,117.724 C 366.756,117.724 366.756,118.409 366.756,119.145 L 366.756,119.145 C 362.752,121.282 359.904,128.66 359.904,134.941 C 359.904,142.372 362.019,144.136 369.071,144.136 C 375.854,144.136 378.029,142.776 378.029,135.345 C 378.029,129.241 375.479,121.829 371.701,119.376 L 371.701,119.376 C 371.694,118.577 371.69,117.764 371.709,117.731 L 371.709,117.731 C 371.637,117.762 369.238,118.483 369.238,118.483 C 369.238,118.483 366.763,117.729 366.763,117.729 L 366.763,117.729 " style="fill: #85c9f7; fill-opacity: 1.0; stroke: none" transform="matrix(1.0,0.0,0.0,1.0,-368.92859999999996,-131.5967)"/><g id="id3ce1ac55058a8fd6e4d635d4" transform="matrix(1.0,0.0,0.0,1.0,0.0,7.734)"><path id="idff2be6915d3361569087c5b9" d="M 368.419,133.231 C 366.571,133.231 362.564,133.834 359.832,134.538 L 359.832,134.538 C 359.83,134.671 359.83,134.804 359.83,134.937 C 359.83,142.368 362.017,145.447 369.069,145.447 C 375.852,145.447 378.174,142.772 378.174,135.341 C 378.174,135.005 378.167,134.669 378.153,134.327 L 378.153,134.327 C 375.478,133.397 371.709,133.198 368.719,133.236 C 368.631,133.237 368.533,133.229 368.428,133.229 L 368.428,133.229 " style="fill: #a19882; fill-opacity: 1.0; stroke: none" transform="matrix(1.0,0.0,0.0,1.0,-369.0001,-139.3216)"/><path id="id9e1f3efa281a266b47e7a74d" d="M 368.347,133.243 C 367.323,133.243 365.634,133.428 363.868,133.71 L 363.868,133.71 L 363.868,135.396 L 363.868,135.396 C 365.644,135.168 367.285,135.025 368.33,135.025 C 368.442,135.025 368.549,135.032 368.647,135.032 C 368.654,135.032 368.661,135.032 368.665,135.032 C 368.936,135.03 369.214,135.029 369.495,135.029 C 371.066,135.029 372.775,135.079 374.445,135.224 L 374.445,135.224 L 374.445,133.537 L 374.445,133.537 C 372.751,133.32 370.965,133.246 369.35,133.246 C 369.108,133.246 368.871,133.247 368.638,133.249 C 368.634,133.249 368.63,133.249 368.626,133.249 C 368.542,133.249 368.451,133.242 368.353,133.242 L 368.353,133.242 M 375.905,133.768 L 375.905,135.378 L 375.905,135.378 C 376.664,135.47 377.401,135.586 378.1,135.731 C 378.1,135.605 378.1,135.478 378.1,135.351 C 378.1,135.015 378.093,134.679 378.079,134.337 L 378.079,134.337 C 377.414,134.108 376.679,133.922 375.905,133.777 L 375.905,133.777 M 378.104,135.744 C 378.104,135.744 378.104,135.744 378.104,135.744 L 378.104,135.744 C 378.104,135.744 378.104,135.744 378.104,135.744 L 378.104,135.744 M 362.427,133.969 C 361.488,134.144 360.573,134.343 359.768,134.548 L 359.768,134.548 C 359.766,134.681 359.766,134.814 359.766,134.947 C 359.766,135.319 359.77,135.679 359.781,136.027 C 360.629,135.87 361.53,135.72 362.429,135.587 L 362.429,135.587 L 362.429,133.954 L 362.429,133.954 M 359.78,136.033 C 359.78,136.033 359.78,136.033 359.78,136.033 L 359.78,136.033 C 359.78,136.033 359.78,136.033 359.78,136.033 L 359.78,136.033 " style="fill: #565351; fill-opacity: 1.0; stroke: none" transform="matrix(1.0,0.0,0.0,1.0,-368.9286,-139.33200000000002)"/><path id="idf2f37dc730bb03cc1b0ac787" d="M 0,0 L 3.954,0 L 3.954,2.884 L 0,2.884 L 0,0 M 0,0 Z" style="fill: none; stroke: #d3cccc; stroke-width: 0.5; stroke-opacity: 1.0" transform="matrix(1.0,0.0,0.0,0.6964754045601101,-1.6365,-6.137596123537502)"/><path id="idba4a1fb30928e2a0c23eaa64" d="M 371.31,134.253 L 369.337,134.203 M 371.31,134.253 Z" style="fill: none; stroke: #d3cccc; stroke-width: 0.5; stroke-opacity: 1.0" transform="matrix(1.0,0.0,0.0,1.0,-368.9293,-139.3324)"/></g><path id="ida74ec4a9f3293b91b703aa09" d="M 0,0.468 C 0,0.21 0.188,0.001 0.421,0.001 C 0.624,0.001 0.795,0.21 0.795,0.468 C 0.795,0.725 0.62,0.928 0.417,0.928 C 0.184,0.928 -0.004,0.725 -0.004,0.467 " style="fill: #b3ddf9; fill-opacity: 1.0; stroke: none" transform="matrix(1.0,0.0,0.0,1.0,-0.1919,-11.3958)"/><path id="id818018e0f1ee00118e30712a" d="M 0,0.468 C 0,0.21 0.188,0.001 0.421,0.001 C 0.624,0.001 0.795,0.21 0.795,0.468 C 0.795,0.725 0.62,0.928 0.417,0.928 C 0.184,0.928 -0.004,0.725 -0.004,0.467 " style="fill: #b3ddf9; fill-opacity: 1.0; stroke: none" transform="matrix(1.0,0.0,0.0,1.0,-0.1919,-8.0838)"/><path id="ide00a00e5875e08cbabec14d6" d="M 0,0.468 C 0,0.21 0.188,0.001 0.421,0.001 C 0.624,0.001 0.795,0.21 0.795,0.468 C 0.795,0.725 0.62,0.928 0.417,0.928 C 0.184,0.928 -0.004,0.725 -0.004,0.467 " style="fill: #b3ddf9; fill-opacity: 1.0; stroke: none" transform="matrix(1.0,0.0,0.0,1.0,-0.1919,-0.7707999999999999)"/><path id="idd4853c776954f218e5842f07" d="M 0,0.468 C 0,0.21 0.188,0.001 0.421,0.001 C 0.624,0.001 0.795,0.21 0.795,0.468 C 0.795,0.725 0.62,0.928 0.417,0.928 C 0.184,0.928 -0.004,0.725 -0.004,0.467 " style="fill: #b3ddf9; fill-opacity: 1.0; stroke: none" transform="matrix(1.0,0.0,0.0,1.0,-0.1919,-4.0838)"/></g><path id="ide5ead5758adad43cf4918d13" d="M 368.532,118.254 L 368.532,118.254 C 368.532,118.254 368.532,118.254 368.532,118.254 L 368.532,118.254 C 368.532,118.254 368.532,118.254 368.532,118.254 L 368.532,118.254 M 367.35,117.765 C 367.24,117.765 367.14,117.789 367.056,117.846 C 366.492,118.222 366.274,119.949 367.209,120.069 C 367.256,120.075 367.303,120.076 367.35,120.076 C 367.775,120.076 368.197,119.843 368.504,119.619 L 368.504,119.619 C 368.525,119.7 368.599,119.758 368.687,119.758 L 369.961,119.758 C 370.047,119.758 370.119,119.7 370.142,119.622 L 370.142,119.622 C 370.452,119.858 370.896,120.118 371.343,120.118 C 371.39,120.118 371.437,120.117 371.484,120.111 C 372.419,119.991 372.201,118.264 371.637,117.888 C 371.553,117.831 371.453,117.807 371.343,117.807 C 370.961,117.807 370.469,118.09 370.143,118.311 L 370.143,118.311 C 370.117,118.239 370.046,118.187 369.963,118.187 L 368.689,118.187 C 368.627,118.187 368.572,118.215 368.537,118.261 L 368.537,118.261 C 368.211,118.043 367.731,117.771 367.357,117.771 L 367.357,117.771 M 368.537,118.257 " style="fill: #a7474a; fill-opacity: 1.0; stroke: none" transform="matrix(1.0,0.0,0.0,1.0,-368.9285,-131.5975)"/></g><g id="ida25a02fc7d65980454328d67" transform="matrix(0.992546151641322,-0.12186934340514748,0.12186934340514748,0.992546151641322,-2.0078701230390177,-26.514186455181765)"><path id="id38312a130c032b177335f729" d="M 388.426,96.66 L 382.294,104.836 L 385.505,110.53 M 388.425,96.658 " style="fill: none; stroke: #244657; stroke-width: 1.5; stroke-opacity: 1.0" transform="matrix(0.9986295347545738,0.052335956242943835,-0.052335956242943835,0.9986295347545738,-362.5638725635896,-109.47388224246063)"/><path id="idda925df8170ceeff0640e292" d="M 388.426,96.66 L 382.294,104.836 L 385.505,110.53 M 388.425,96.658 " style="fill: none; stroke: #244657; stroke-width: 1.5; stroke-opacity: 1.0" transform="matrix(-0.9961946980917455,-0.08715574274765817,-0.08715574274765817,0.9961946980917455,376.5873417625129,-55.961177580206986)"/><path id="iddffaff39fd78c57869fdd8ab" d="M 0,2.473 C 0,1.107 1.48,-0 3.306,-0 C 5.131,-0 6.818,0.026 6.61,2.473 C 6.402,4.92 5.13,4.945 3.304,4.945 C 1.478,4.945 -0.002,3.838 -0.002,2.472 M -0.002,2.472 " style="fill: #f2dbbf; fill-opacity: 1.0; stroke: none" transform="matrix(0.9563047559630354,0.29237170472273677,-0.29237170472273677,0.9563047559630354,14.036381967588506,14.506277963021702)"/><path id="id97254ab2f570e59e691caf02" d="M 0,2.473 C 0,1.107 1.48,-0 3.306,-0 C 5.131,-0 6.818,0.026 6.61,2.473 C 6.402,4.92 5.13,4.945 3.304,4.945 C 1.478,4.945 -0.002,3.838 -0.002,2.472 M -0.002,2.472 " style="fill: #f2dbbf; fill-opacity: 1.0; stroke: none" transform="matrix(-0.9612616959383189,0.27563735581699916,0.27563735581699916,0.9612616959383189,-12.74708249301266,14.710104090520149)"/><path id="id99727871be5734b97890d78e" d="M 389.969,77.343 C 389.969,77.343 391.048,85.04 389.835,90.172 C 388.622,95.304 384.707,102.328 384.707,102.328 L 354.45,104.489 C 354.45,104.489 347.833,91.117 347.293,87.066 C 346.753,83.015 347.428,80.315 347.562,80.315 C 347.696,80.315 372.28,73.427 372.28,73.427 L 389.974,77.344 M 389.974,77.344 " style="fill: #ff9756; fill-opacity: 1.0; stroke: none" transform="matrix(1.0,0.0,0.0,1.0,-368.6254,-89.5343)"/><path id="id56e1711c0172c8e25fe1ebe6" d="M 0.535,26.248 C 0.802,14.966 9.322,13.127 20.823,13.127 C 32.323,13.127 40.707,13.629 41.24,26.115 C 41.861,40.597 32.721,62.003 21.221,62.003 C 9.72,62.003 0.187,40.741 0.531,26.249 M 0.531,26.249 " style="fill: url(#id56e1711c0172c8e25fe1ebe6lgf); stroke: none" transform="matrix(1.0,0.0,0.0,1.0,-20.5219,-34.0647)"><set attributeName="opacity" to="1"/></path><path id="id1b32f384260abbf9a35955fa" d="M 370.793,61.63 C 370.017,61.63 368.443,66.709 368.297,67.186 L 368.297,67.186 C 368.286,67.185 368.275,67.184 368.264,67.183 L 368.264,67.183 C 368.099,66.899 367.136,65.133 367.955,64.212 C 368.089,64.062 368.129,63.995 368.103,63.995 L 368.103,63.995 C 367.976,63.995 366.282,65.574 365.972,66.98 L 365.972,66.98 C 364.857,66.89 363.694,66.812 363.007,66.812 C 361.373,66.812 358.253,67.405 353.054,69.335 C 348.04,71.196 345.375,82.455 346.389,82.455 C 346.425,82.455 346.465,82.44 346.512,82.409 C 347.848,81.518 369.54,78.844 369.54,78.844 L 369.54,74.239 L 371.025,77.21 L 370.877,73.942 L 373.401,78.845 L 391.081,78.549 C 391.081,78.549 388.144,65.918 379.642,65.918 C 379.594,65.918 379.546,65.918 379.498,65.918 C 377.4,65.954 374.405,66.366 372.168,66.721 L 372.168,66.721 C 372.355,66.366 372.578,65.901 372.868,65.218 C 373.093,64.693 372.986,64.505 372.713,64.505 C 372.007,64.505 370.193,65.779 370.193,65.779 C 370.193,65.779 371.695,63.167 371.02,61.817 C 370.96,61.696 370.888,61.642 370.807,61.642 L 370.807,61.642 " style="fill: #ff9756; fill-opacity: 1.0; stroke: none" transform="matrix(1.0,0.0,0.0,1.0,-368.6246,-89.5342)"/><path id="idc1d4562b5cdef36094f0f2a5" d="M 377.359,86.366 C 376.631,86.366 376.319,88.551 376.943,89.174 C 377.567,89.797 382.045,89.07 382.045,89.07 C 382.045,89.07 378.089,86.364 377.361,86.364 M 377.361,86.364 " style="fill: #f08d4e; fill-opacity: 1.0; stroke: none" transform="matrix(1.0,0.0,0.0,1.0,-367.10929999999996,-92.99510000000001)"/><path id="id23eb2d3bdc57131e0d419a9c" d="M 377.359,86.366 C 376.631,86.366 376.319,88.551 376.943,89.174 C 377.567,89.797 382.045,89.07 382.045,89.07 C 382.045,89.07 378.089,86.364 377.361,86.364 M 377.361,86.364 " style="fill: #f08d4e; fill-opacity: 1.0; stroke: none" transform="matrix(-0.9902680687415704,0.13917310096006544,0.13917310096006544,0.9902680687415704,356.9025224733554,-144.45582862093121)"/><path id="id20e333381f5e6139f3145068" d="M 380.714,102.333 C 380.029,102.333 379.474,102.822 379.474,103.424 C 379.474,104.026 380.029,104.515 380.714,104.515 C 381.399,104.515 381.954,104.026 381.954,103.424 C 381.954,102.822 381.399,102.333 380.714,102.333 C 380.714,102.333 380.714,102.333 380.714,102.333 M 375.65,102.792 C 374.965,102.792 374.41,103.281 374.41,103.883 C 374.41,104.485 374.965,104.974 375.65,104.974 C 376.335,104.974 376.89,104.485 376.89,103.883 C 376.89,103.281 376.335,102.792 375.65,102.792 C 375.65,102.792 375.65,102.792 375.65,102.792 M 378.356,105.117 C 377.671,105.117 377.116,105.606 377.116,106.208 C 377.116,106.81 377.671,107.299 378.356,107.299 C 379.041,107.299 379.596,106.81 379.596,106.208 C 379.596,105.606 379.041,105.117 378.356,105.117 L 378.356,105.117 L 377.104,107.606 " style="fill: #f2c38b; fill-opacity: 1.0; stroke: none" transform="matrix(1.0,0.0,0.0,1.0,-366.307,-95.4701)"/><path id="id139ddcd1ee37e790913dff55" d="M 380.714,102.333 C 380.029,102.333 379.474,102.822 379.474,103.424 C 379.474,104.026 380.029,104.515 380.714,104.515 C 381.399,104.515 381.954,104.026 381.954,103.424 C 381.954,102.822 381.399,102.333 380.714,102.333 L 380.714,102.333 M 375.65,102.792 C 374.965,102.792 374.41,103.281 374.41,103.883 C 374.41,104.485 374.965,104.974 375.65,104.974 C 376.335,104.974 376.89,104.485 376.89,103.883 C 376.89,103.281 376.335,102.792 375.65,102.792 L 375.65,102.792 M 378.356,105.117 C 377.671,105.117 377.116,105.606 377.116,106.208 C 377.116,106.81 377.671,107.299 378.356,107.299 C 379.041,107.299 379.596,106.81 379.596,106.208 C 379.596,105.606 379.041,105.117 378.356,105.117 L 378.356,105.117 " style="fill: #f2c38b; fill-opacity: 1.0; stroke: none" transform="matrix(0.9781476007338057,0.20791169081775934,-0.20791169081775934,0.9781476007338057,-358.1251028268982,-169.9043369959914)"/><g id="id717019dee5755e940349209f" transform="matrix(1.0180835203239125,0.0,0.0,1.3279866748411264,11.125,4.251)"><path id="idbb7521ca410159108360de270" d="M 0,2.299 C 0,1.03 0.586,0.001 1.309,0.001 C 2.032,0.001 2.617,1.03 2.617,2.299 M 0,2.299 Z" style="fill: none; stroke: #795548; stroke-width: 1.0; stroke-opacity: 1.0" transform="matrix(1.0,0.0,0.0,1.0,-1.3094000000000001,-2.2995)"/></g><g id="idf07dd3d8704f47ee38bf4bf3" transform="matrix(-1.0180835203239125,0.0,0.0,1.3279866748411264,-5.125,4.626)"><path id="id426350aa44b2dc1d093569410" d="M 0,2.299 C 0,1.03 0.586,0.001 1.309,0.001 C 2.032,0.001 2.617,1.03 2.617,2.299 M 0,2.299 Z" style="fill: none; stroke: #795548; stroke-width: 1.0; stroke-opacity: 1.0" transform="matrix(1.0,0.0,0.0,1.0,-1.3094000000000001,-2.2995)"/></g><g id="idf46bd73a60028a178b1557e3" transform="matrix(1.1989591577524907,0.0,0.0,1.072911883493975,0.473,18.845)"><path id="id2aee49e0cd67c2001e2e1c0d0" d="M 10.441,15.601 C 10.441,15.48 4.668,17.076 1.72,17.076 C -1.228,17.076 -8.967,15.849 -8.967,15.849 C -8.967,15.849 -4.914,25.676 1.473,25.796 C 7.86,25.916 10.438,15.72 10.438,15.599 M 10.438,15.599 " style="fill: #ffffff; fill-opacity: 1.0; stroke: none" transform="matrix(1.0,0.0,0.0,1.0,-0.7371,-20.6967)"/></g><g id="idf831e8b216de8db1db8be809" transform="matrix(0.9993908270190958,-0.03489949670250096,0.03489949670250096,0.9993908270190958,0.875,5.25)"><path id="id822a99272cd64e5219c1d7e6" d="M 0,0 L 18.127,0 L 18.127,14.041 L 0,14.041 L 0,0 M 0,0 Z" style="fill: url(#id822a99272cd64e5219c1d7e6lgf); stroke: #1f526d; stroke-width: 1.5; stroke-opacity: 1.0" transform="matrix(0.9426127199019474,0.0,0.0,1.0952759643905112,2.759441090624719,-7.787603963196462)"><set attributeName="opacity" to="1"/></path><path id="id162280f1e906599b2a1e9377" d="M 366.04,94.593 C 366.04,94.593 367.607,94 368.647,94 C 369.687,94 371.097,94.668 371.097,94.668 M 366.04,94.596 " style="fill: none; stroke: #1f526d; stroke-width: 1.5; stroke-opacity: 1.0" transform="matrix(1.0,0.0,0.0,1.0,-368.6302,-97.254)"/><path id="id8ba3e06f9cb2ea45fd0d7152" d="M 0,0 L 18.127,0 L 18.127,14.041 L 0,14.041 L 0,0 M 0,0 Z" style="fill: url(#id8ba3e06f9cb2ea45fd0d7152lgf); stroke: #1f526d; stroke-width: 1.5; stroke-opacity: 1.0" transform="matrix(0.943846313005239,0.0,0.0,1.1129592193474718,-19.846739827185587,-7.813752791272795)"><set attributeName="opacity" to="1"/></path></g><path id="id5054d42cc74bb7a9e4845a8a" d="M 0,2.031 C 0,0.91 1.392,-0.311 3.045,-0.311 C 4.698,-0.311 5.986,0.91 5.986,2.031 C 5.986,2.809 5.342,3.485 4.395,3.823 C 3.98,3.972 3.504,4.055 3,4.055 C 1.347,4.055 0.007,3.148 0.007,2.027 M 0.007,2.027 " style="fill: #fec9b8; fill-opacity: 1.0; stroke: none" transform="matrix(0.9902680687415704,-0.13917310096006544,0.13917310096006544,0.9902680687415704,-2.350032217206621,8.437420376403912)"/></g><g id="id1709320adbb2bd5ae86e9909" transform="matrix(1.0,0.0,0.0,1.0,30.2,-65.6)"><path id="id81db45069cff4b97be8bb1830" d="M 0,10.514 C 0,4.708 4.537,0.001 10.134,0.001 C 15.731,0.001 20.267,4.708 20.267,10.514 C 20.267,16.32 15.731,21.027 10.135,21.027 C 4.538,21.027 0.001,16.32 0.001,10.514 " style="fill: none; stroke: #fdf6af; stroke-width: 0.3; stroke-opacity: 1.0" transform="matrix(1.1413045079645885,0.0,0.0,1.1413045079645885,-11.567805970925884,-12.000246248993665)"><set attributeName="opacity" to="0.683"/></path></g><g id="idf0d33ea3a8743f44ff34cf5c" transform="matrix(1.0,0.0,0.0,1.0,30.0,-62.0)"><g id="id0cd480ed4afb10bae45e900b0" transform="matrix(1.0,0.0,0.0,1.0,-0.0,-0.0)"><path id="ida29e10ad34cc826fc3218a80" d="M 0,8.085 C 0,3.62 3.278,0.001 7.32,0.001 C 11.362,0.001 14.64,3.62 14.64,8.085 C 14.64,12.55 11.362,16.169 7.319,16.169 C 3.276,16.169 -0.002,12.55 -0.002,8.085 " style="fill: url(#ida29e10ad34cc826fc3218a80rgf); stroke: #f9fbd3; stroke-width: 0.3; stroke-opacity: 1.0" transform="matrix(1.0,0.0,0.0,1.0,-7.3227,-11.9285)"><set attributeName="opacity" to="1"/></path><path id="idfd63c773e502c12e15398a71" d="M 59.106,-48.536 L 57.228,-55.737 C 57.913,-55.892 59.105,-55.109 59.105,-55.109 C 59.574,-55.889 59.887,-54.795 59.887,-54.795 C 59.887,-54.795 60.826,-56.517 60.826,-56.362 C 60.826,-56.207 60.826,-54.172 60.826,-54.172 L 61.765,-56.205 L 61.92,-54.797 L 63.014,-56.361 C 63.014,-56.361 60.04,-49.316 60.509,-48.222 M 59.101,-48.535 " style="fill: none; stroke: #565656; stroke-width: 0.3; stroke-opacity: 1.0" transform="matrix(1.0,0.0,0.0,1.0,-59.8546,52.770799999999994)"/><path id="id66efae4a466f5078e10154eb" d="M 57.165,-55.895 C 58.521,-55.569 59.103,-55.115 59.103,-55.115 C 59.572,-55.895 59.885,-54.801 59.885,-54.801 C 59.885,-54.801 60.824,-56.523 60.824,-56.368 C 60.824,-56.213 60.824,-54.18 60.824,-54.18 L 61.763,-56.213 L 61.918,-54.805 L 63.012,-56.369 M 57.159,-55.9 " style="fill: none; stroke: #e6ee2f; stroke-width: 0.5; stroke-opacity: 1.0" transform="matrix(1.0,0.0,0.0,1.0,-59.8656,52.7748)"/><path id="idef7fb1b7b8ee23cb03ae4b5d" d="M 56.79,-51.727 L 56.79,-50.475 L 57.572,-50.475 C 57.572,-48.452 57.572,-46.072 57.572,-44.216 C 58.276,-44.216 58.507,-43.277 59.915,-43.277 C 61.323,-43.277 61.667,-44.216 62.417,-44.216 C 62.417,-46.072 62.417,-48.452 62.417,-50.475 L 63.197,-50.475 L 63.197,-51.727 L 56.78,-51.727 " style="fill: #605841; fill-opacity: 1.0; stroke: none" transform="matrix(1.0,0.0,0.0,1.0,-59.802,55.198)"/></g></g><g id="id2b85b9574b77d5bd2e2050ed" transform="matrix(10.596423752992022,0.0,0.0,10.596423752992022,29.999,-65.666)"><set attributeName="opacity" to="0"/><path id="idc47e53d37f5c7dc111c50eaa0" d="M 0,2.841 C 0,1.272 1.229,0 2.746,0 C 4.263,0 5.492,1.272 5.492,2.841 C 5.492,4.41 4.263,5.682 2.746,5.682 C 1.229,5.682 0,4.41 0,2.841 Z" style="fill: none; stroke: #f8fe79; stroke-width: 0.2; stroke-opacity: 1.0" transform="matrix(1.0,0.0,0.0,1.0,-2.747,-2.8418)"/></g><g id="id28af98a1c731c5aa350e7c43" transform="matrix(14.458523034691254,0.0,0.0,14.458523034691254,29.999,-65.666)"><set attributeName="opacity" to="0"/><path id="idd254acb029ca625e1f151aeb0" d="M 0,2.841 C 0,1.272 1.229,0 2.746,0 C 4.263,0 5.492,1.272 5.492,2.841 C 5.492,4.41 4.263,5.682 2.746,5.682 C 1.229,5.682 0,4.41 0,2.841 Z" style="fill: none; stroke: #f8fe79; stroke-width: 0.2; stroke-opacity: 1.0" transform="matrix(1.0,0.0,0.0,1.0,-2.747,-2.8418)"/></g><g id="id1615c516a76597526353aa00" transform="matrix(-0.6946583704589973,0.7193398003386511,0.7193398003386511,0.6946583704589973,-10.872780225389027,11.634778036081718)"><path id="id897f9562b79d97fedddd315a" d="M 379.95,130.978 C 381.687,138.653 381.034,141.368 381.034,141.368 " style="fill: none; stroke: #82c2ee; stroke-width: 3.0; stroke-opacity: 1.0" transform="matrix(1.0,0.0,0.0,1.0,-380.80330000000004,-138.9401)"/><path id="ide3cafc8c4cd9864e86f1a019" d="M 36.25,25.5 C 35.875,25.875 35,26.625 35.25,29.125 C 35.5,31.625 36.625,30.752 38.25,30.502 C 39.875,30.252 39.125,25.504 39.125,25.504 C 39.125,25.504 36.625,25.129 36.25,25.504 M 36.25,25.504 " style="fill: #fcdac7; fill-opacity: 1.0; stroke: none" transform="matrix(1.0,0.0,0.0,1.0,-37.2518,-22.892)"/></g><g id="id8166e2466e04e872a524c87b" transform="matrix(0.6819983600624985,0.7313537016191705,-0.7313537016191705,0.6819983600624985,11.804184433307887,12.088003386667491)"><path id="ide8f86037717787945d926caf" d="M 379.95,130.978 C 381.687,138.653 381.034,141.368 381.034,141.368 " style="fill: none; stroke: #82c2ee; stroke-width: 3.0; stroke-opacity: 1.0" transform="matrix(1.0,0.0,0.0,1.0,-380.80330000000004,-138.9401)"/><path id="id728ef488dfd95d8edb44a3fd" d="M 36.25,25.5 C 35.875,25.875 35,26.625 35.25,29.125 C 35.5,31.625 36.625,30.752 38.25,30.502 C 39.875,30.252 39.125,25.504 39.125,25.504 C 39.125,25.504 36.625,25.129 36.25,25.504 M 36.25,25.504 " style="fill: #fcdac7; fill-opacity: 1.0; stroke: none" transform="matrix(1.0,0.0,0.0,1.0,-37.2518,-22.892)"/></g></g></g><g id="idc8b10dd2747254ac7ff3a1d1" transform="matrix(1.0,0.0,0.0,1.0,5.0,330.203)"><g id="idb40eecd5af14f1e65daccc42" transform="matrix(1.0,0.0,0.0,1.0,70.498,12.399)"><g id="ida410f698739dc55ed4135336" transform="matrix(1.0,0.0,0.0,1.0,-58.1,0.0)"><path id="id6d9bb2a4a274956f1d5569c1" d="M 23.5,12.5 C 23.5,18.684 18.531,23.697 12.402,23.697 C 6.272,23.697 1.303,18.685 1.303,12.501 C 1.303,6.316 6.272,1.302 12.402,1.302 C 18.531,1.302 23.5,6.316 23.5,12.501 L 23.5,12.501 M 23.5,12.501 " style="fill: #38393a; fill-opacity: 1.0; stroke: none" transform="matrix(1.0,0.0,0.0,1.0,-12.399,-12.399)"/><g id="id2b0359bd31bacbc0433a79db" transform="matrix(1.0,0.0,0.0,1.0,-0.0,-0.0)"><path id="id48ec1db20001738f3cefe6d6" d="M 12.399,0.5 C 5.8,0.5 0.5,5.8 0.5,12.399 C 0.5,18.999 5.8,24.297 12.399,24.297 C 18.999,24.297 24.296,18.999 24.296,12.399 C 24.296,5.799 18.897,0.5 12.397,0.5 L 12.397,0.5 M 18.296,16 C 17.696,17 16.997,18.1 16.798,18.397 L 16.798,18.497 L 16.698,18.497 C 16.299,18.696 14.899,19.095 14.201,19.095 C 14.201,19.095 14.102,19.095 14.102,19.095 L 14.003,19.095 C 13.203,18.798 11.403,18.198 10.804,17.999 C 9.804,18.398 8.804,18.898 7.804,19.398 C 7.304,19.597 6.904,19.894 6.404,20.093 C 6.404,20.093 6.404,20.093 6.404,20.093 C 6.404,20.093 5.404,20.693 5.204,20.693 L 4.905,20.693 L 4.905,20.396 C 4.905,19.796 5.004,18.397 5.103,18.1 C 6.401,4.1 11.6,2.902 11.798,2.802 C 11.996,2.802 12.296,2.703 12.494,2.703 L 12.593,2.703 C 12.692,2.703 12.692,2.703 12.791,2.703 C 17.09,2.703 21.289,13.703 21.488,14.203 C 21.588,14.401 21.787,15.099 21.887,15.198 L 21.987,15.498 L 18.289,15.997 L 18.289,15.997 M 12.39,0.497 " style="fill: #ffbc00; fill-opacity: 1.0; stroke: none" transform="matrix(1.0,0.0,0.0,1.0,-12.399,-12.3985)"/><path id="id08b4c02ce29d597908a6a97d" d="M 13.899,7.8 C 13.201,7.8 12.602,7.501 12.602,7.501 L 11.503,7.001 L 12.701,7.001 C 13.099,7.001 13.297,6.803 13.495,6.504 C 13.693,6.205 13.594,5.906 13.495,5.706 C 13.195,5.206 12.895,5.008 12.498,5.008 C 11.498,5.008 10.399,6.107 9.899,6.706 C 9.3,7.606 8.8,8.705 8.403,10.005 C 9.601,9.406 11.899,8.507 15.798,7.809 L 15.996,7.809 L 16.694,9.809 L 16.397,9.908 C 10.797,10.908 8.198,12.606 7.599,13.003 C 7.3,14.303 7.102,15.803 6.904,17.3 L 10.303,16.101 L 12.303,16.8 C 13.103,17.097 13.603,17.197 14.002,17.396 C 14.601,17.396 15.799,17.099 16.198,16.9 C 16.397,16.603 17.397,15.103 17.796,14.303 L 17.896,14.204 L 17.996,14.204 C 18.695,14.105 19.294,14.006 19.693,14.006 C 18.994,11.907 17.395,8.407 15.995,6.507 C 15.495,7.606 14.495,7.806 13.896,7.806 L 13.896,7.806 M 16.395,13.305 C 15.895,14.404 14.296,15.003 13.098,15.003 C 12.499,15.003 11.999,14.805 11.602,14.607 L 11.404,14.508 L 12.204,13.008 L 12.504,13.206 C 12.603,13.305 12.901,13.404 13.201,13.404 C 14.001,13.404 14.801,13.005 14.9,12.705 L 14.999,12.405 L 16.596,13.103 L 16.397,13.301 L 16.397,13.301 M 13.897,7.801 " style="fill: #ffbc00; fill-opacity: 1.0; stroke: none" transform="matrix(1.0,0.0,0.0,1.0,-12.399000000000001,-12.3985)"/></g></g><g id="idb0e68a88a7d37b29aab61888" transform="matrix(1.0,0.0,0.0,1.0,14.495,-0.044)"><path id="id11c66bb3d6e0bbd2cea6cf79" d="M 123.5,7.5 L 116.5,7.5 C 115,7.5 113.803,8.599 113.803,9.996 L 113.803,14.596 C 113.803,15.993 115,17.091 116.5,17.091 L 123.5,17.091 C 125,17.091 126.197,15.992 126.197,14.595 L 126.197,9.995 C 126.197,8.695 125,7.497 123.5,7.497 L 123.5,7.497 M 123.303,13.997 C 123.303,14.497 122.903,14.797 122.403,14.797 L 117.503,14.797 C 117.003,14.797 116.603,14.4 116.603,14 L 116.603,10.603 C 116.603,10.103 117.003,9.706 117.503,9.706 L 122.403,9.706 C 122.903,9.706 123.303,10.105 123.303,10.605 L 123.303,14.004 L 123.303,14.004 M 138,7.604 L 138,14.004 L 133.101,8.504 C 132.503,7.705 131.503,7.606 131.204,7.507 L 131.204,7.507 L 128.204,7.507 L 128.204,17.007 L 131.204,17.007 L 131.204,10.608 C 132.103,11.608 135.302,15.307 136.201,16.106 C 137.4,17.106 138.099,17.106 138.099,17.106 L 138.099,17.106 L 140.998,17.106 L 140.998,7.606 L 137.998,7.606 L 137.998,7.606 M 52.399,14.106 L 47.5,8.606 C 46.903,7.807 45.903,7.708 45.605,7.609 L 45.605,7.609 L 42.605,7.609 L 42.605,17.109 L 45.605,17.109 L 45.605,10.71 C 46.504,11.71 49.702,15.409 50.601,16.208 C 51.801,17.208 52.501,17.208 52.501,17.208 L 52.501,17.208 L 55.4,17.208 L 55.4,7.608 L 52.4,7.608 L 52.4,14.108 L 52.4,14.108 M 57.299,17.107 L 60.299,17.107 L 60.299,7.607 L 57.299,7.607 L 57.299,17.107 L 57.299,17.107 M 89.097,9.908 L 92.997,9.908 L 92.997,17.107 L 95.997,17.107 L 95.997,9.908 L 99.796,9.908 L 99.796,7.61 L 89.096,7.61 L 89.096,9.908 L 89.096,9.908 M 112.195,10.507 C 112.392,10.207 112.592,10.108 112.691,9.708 C 112.99,8.408 111.09,7.71 110.291,7.71 L 108.492,7.71 L 103.893,7.71 L 103.893,7.71 L 100.893,7.71 L 100.893,7.71 L 100.893,10.01 L 100.893,17.208 L 103.893,17.208 L 103.893,9.908 L 108.992,9.908 L 106.193,13.007 L 109.89,17.107 L 113.587,17.107 L 109.89,13.007 L 112.189,10.507 L 112.189,10.507 M 82.689,7.607 L 82.689,7.607 L 82.689,7.607 L 77.689,17.107 L 80.886,17.207 L 84.286,10.707 L 87.686,17.207 L 90.883,17.107 L 85.883,7.607 L 82.686,7.607 L 82.686,7.607 M 33.987,7.607 L 33.987,7.607 L 33.987,7.607 L 28.987,17.107 L 32.187,17.207 L 35.586,10.707 L 38.985,17.207 L 42.185,17.107 L 37.185,7.607 L 33.985,7.607 L 33.985,7.607 M 74.384,7.607 L 74.384,7.607 C 74.085,7.607 73.388,7.706 72.888,8.404 L 69.789,13.103 L 66.69,8.404 C 66.29,7.706 65.593,7.607 65.294,7.607 L 65.294,7.607 L 62.294,7.607 L 62.294,17.106 L 65.294,17.106 L 65.294,10.907 L 69.194,17.106 L 69.694,17.106 L 69.793,17.106 L 70.293,17.106 L 74.293,10.806 L 74.293,17.106 L 77.293,17.106 L 77.293,7.607 L 74.494,7.607 C 74.593,7.607 74.593,7.607 74.396,7.607 L 74.396,7.607 M 123.494,7.508 " style="fill: #ffffff; fill-opacity: 1.0; stroke: none" transform="matrix(1.0,0.0,0.0,1.0,-84.9945,-12.3535)"/><path id="idb5f04d444056e612f1547aa4" d="M 123.5,7.5 L 116.5,7.5 C 115,7.5 113.803,8.599 113.803,9.996 L 113.803,14.596 C 113.803,15.993 115,17.091 116.5,17.091 L 123.5,17.091 C 125,17.091 126.197,15.992 126.197,14.595 L 126.197,9.995 C 126.197,8.695 125,7.497 123.5,7.497 L 123.5,7.497 M 123.303,13.997 C 123.303,14.497 122.903,14.797 122.403,14.797 L 117.503,14.797 C 117.003,14.797 116.603,14.4 116.603,14 L 116.603,10.603 C 116.603,10.103 117.003,9.706 117.503,9.706 L 122.403,9.706 C 122.903,9.706 123.303,10.105 123.303,10.605 L 123.303,14.004 L 123.303,14.004 M 138,7.604 L 138,14.004 L 133.101,8.504 C 132.503,7.705 131.503,7.606 131.204,7.507 L 131.204,7.507 L 128.204,7.507 L 128.204,17.007 L 131.204,17.007 L 131.204,10.608 C 132.103,11.608 135.302,15.307 136.201,16.106 C 137.4,17.106 138.099,17.106 138.099,17.106 L 138.099,17.106 L 140.998,17.106 L 140.998,7.606 L 137.998,7.606 L 137.998,7.606 M 52.399,14.106 L 47.5,8.606 C 46.903,7.807 45.903,7.708 45.605,7.609 L 45.605,7.609 L 42.605,7.609 L 42.605,17.109 L 45.605,17.109 L 45.605,10.71 C 46.504,11.71 49.702,15.409 50.601,16.208 C 51.801,17.208 52.501,17.208 52.501,17.208 L 52.501,17.208 L 55.4,17.208 L 55.4,7.608 L 52.4,7.608 L 52.4,14.108 L 52.4,14.108 M 57.299,17.107 L 60.299,17.107 L 60.299,7.607 L 57.299,7.607 L 57.299,17.107 L 57.299,17.107 M 89.097,9.908 L 92.997,9.908 L 92.997,17.107 L 95.997,17.107 L 95.997,9.908 L 99.796,9.908 L 99.796,7.61 L 89.096,7.61 L 89.096,9.908 L 89.096,9.908 M 112.195,10.507 C 112.392,10.207 112.592,10.108 112.691,9.708 C 112.99,8.408 111.09,7.71 110.291,7.71 L 108.492,7.71 L 103.893,7.71 L 103.893,7.71 L 100.893,7.71 L 100.893,7.71 L 100.893,10.01 L 100.893,17.208 L 103.893,17.208 L 103.893,9.908 L 108.992,9.908 L 106.193,13.007 L 109.89,17.107 L 113.587,17.107 L 109.89,13.007 L 112.189,10.507 L 112.189,10.507 M 82.689,7.607 L 82.689,7.607 L 82.689,7.607 L 77.689,17.107 L 80.886,17.207 L 84.286,10.707 L 87.686,17.207 L 90.883,17.107 L 85.883,7.607 L 82.686,7.607 L 82.686,7.607 M 33.987,7.607 L 33.987,7.607 L 33.987,7.607 L 28.987,17.107 L 32.187,17.207 L 35.586,10.707 L 38.985,17.207 L 42.185,17.107 L 37.185,7.607 L 33.985,7.607 L 33.985,7.607 M 74.384,7.607 L 74.384,7.607 C 74.085,7.607 73.388,7.706 72.888,8.404 L 69.789,13.103 L 66.69,8.404 C 66.29,7.706 65.593,7.607 65.294,7.607 L 65.294,7.607 L 62.294,7.607 L 62.294,17.106 L 65.294,17.106 L 65.294,10.907 L 69.194,17.106 L 69.694,17.106 L 69.793,17.106 L 70.293,17.106 L 74.293,10.806 L 74.293,17.106 L 77.293,17.106 L 77.293,7.607 L 74.494,7.607 C 74.593,7.607 74.593,7.607 74.396,7.607 L 74.396,7.607 M 123.494,7.508 " style="fill: none; stroke: #000000; stroke-width: 0.5; stroke-opacity: 1.0" transform="matrix(1.0,0.0,0.0,1.0,-84.9945,-12.3535)"/></g><path id="idde1457446bbd12921bcba34a" d="M 12.399,0.5 C 18.999,0.5 24.296,5.8 24.296,12.399 C 24.296,18.999 18.998,24.297 12.398,24.297 C 5.798,24.297 0.499,18.898 0.499,12.398 C 0.499,5.898 5.799,0.499 12.398,0.499 M 12.398,-0.001 C 5.599,-0.001 -0,5.598 -0,12.397 C -0,19.196 5.599,24.796 12.398,24.796 C 19.197,24.796 24.796,19.196 24.796,12.398 C 24.796,5.599 19.197,-0.001 12.397,-0.001 L 12.397,-0.001 L 12.397,-0.001 M 12.397,0.499 " style="fill: #000000; fill-opacity: 1.0; stroke: none" transform="matrix(1.0,0.0,0.0,1.0,-70.49849999999999,-12.398)"/></g></g></g></svg>