<?xml version="1.0" encoding="UTF-8"?>
<svg version="1.1" viewBox="0 0 640 360" preserveAspectRatio="xMidYMid meet" xmlns="http://www.w3.org/2000/svg" xmlns:xlink="http://www.w3.org/1999/xlink" stroke-linejoin="round" stroke-linecap="round"><!--SVG SMIL Animation Export (c) 2017 Animatron INC--><!--Version 1.0 by squared9--><defs><mask id="canvasMask" maskUnits="userSpaceOnUse"><rect x="0" y="0" width="640px" height="360px" fill="#FFFFFF" stroke="none"/></mask><linearGradient gradientUnits="userSpaceOnUse" id="idd78160f980d803ba28317b46lgf" x1="0.595" y1="-0.001" x2="0.6400138" y2="6.3933718399999995"><stop offset="0.0%" stop-color="#ffe0bd" stop-opacity="1.0"/><stop offset="100.0%" stop-color="#8f5151" stop-opacity="1.0"/></linearGradient></defs><rect fill="#ffffff" stroke="none" x="0" y="0" width="640px" height="360px"/><g id="id38998d1a07258b26b5e0c002" mask="url(#canvasMask)"><g id="idd2fe1f294abbac154c261c8c" transform="matrix(0.9999999027908835,0.0,0.0,0.9999999027908835,280.45000004393853,180.005)"><path id="idf9fe795d3592d0af9b3d7ac7" d="M 0,0 L 640,0 L 640,360 L 0,360 L 0,0 M 0,0 Z" style="fill: #8fb2bf; fill-opacity: 1.0; stroke: none" transform="matrix(1.0,0.0,0.0,1.0,-280.448,-180.0)"/><path id="ida6b43350324664ce8180ca5d" d="M 654,159.5 C 642,160.699 616.601,158.899 591.904,164.199 C 567.204,169.499 570.704,184.198 538.305,194.198 C 505.805,204.198 459.305,213.597 440.906,214.796 C 422.608,215.995 416.909,210.096 416.909,210.096 C 416.909,207.197 421.108,197.099 444.406,195.4 C 467.704,193.6 515.002,194.198 532.601,180.1 C 550.2,166.002 568.599,153.603 598.897,155.403 C 629.195,157.203 644.094,150.105 651.094,148.906 C 655.193,148.207 659.592,151.606 660.092,154.704 C 660.092,148.704 660.191,141.204 660.489,131.805 C 616.989,164.805 550.09,131.207 478.191,119.408 C 406.191,107.609 383.591,145.909 295.392,167.108 C 207.193,188.307 85.593,156.507 9.394,130.608 C -66.806,104.709 -107.005,131.807 -107.005,131.807 L -107.005,174.207 C -107.005,174.207 -40.005,217.207 36.894,193.008 C 113.794,168.911 280.494,194.211 372.994,216.011 C 465.494,237.811 571.394,194.811 600.993,178.912 C 630.592,163.013 660.592,171.812 660.592,171.812 C 660.592,171.812 660.193,166.714 660.193,155.815 C 659.895,157.614 658.097,159.114 653.998,159.513 L 653.998,159.513 M 381.599,145.013 C 381.599,145.013 405.599,129.814 430.298,126.814 C 454.997,123.814 498.795,124.814 502.994,129.314 C 507.193,133.814 483.893,131.814 459.994,132.814 C 435.994,133.814 399.295,156.614 386.596,157.114 C 373.796,157.614 381.596,145.016 381.596,145.016 L 381.596,145.016 M -51.004,131.216 C -23.504,130.618 13.896,138.317 16.694,144.216 C 19.492,150.115 23.792,164.213 -7.308,159.514 C -38.407,154.815 -47.507,148.915 -65.207,150.114 C -82.806,151.313 -81.407,150.715 -87.806,144.815 C -94.105,138.915 -78.506,131.817 -51.006,131.219 L -51.006,131.219 M 35.793,188.316 C 8.994,192.515 -3.006,200.113 -71.506,181.914 C -75.805,180.816 -92.704,168.917 -78.605,163.117 C -64.506,157.218 -49.006,170.816 -22.806,171.914 C 3.394,173.012 27.293,173.11 37.192,165.411 C 47.091,157.712 63.29,150.114 72.487,158.313 C 81.684,166.512 62.585,184.211 35.786,188.309 L 35.786,188.309 M 254.586,187.211 C 225.687,187.809 147.99,177.809 133.191,176.61 C 118.392,175.411 84.493,175.411 84.493,175.411 C 85.893,173.012 78.893,167.712 104.292,168.911 C 129.691,170.11 183.288,180.708 212.288,180.11 C 241.187,179.512 310.383,178.914 331.582,168.316 C 352.781,157.718 373.18,160.118 360.481,170.118 C 347.782,180.118 265.883,187.817 257.484,187.817 C 248.886,187.719 283.484,186.621 254.585,187.219 L 254.585,187.219 M 352.585,204.219 C 339.886,197.719 336.386,191.82 362.486,182.42 C 388.586,173.021 409.785,150.621 446.484,145.321 C 483.183,140.021 535.681,146.021 524.081,162.421 C 512.482,178.82 470.482,178.32 433.783,183.62 C 397.084,188.92 391.486,208.319 375.186,208.917 C 358.987,209.515 352.588,204.215 352.588,204.215 L 352.588,204.215 M 653.985,159.516 " style="fill: #f1f1f1; fill-opacity: 1.0; stroke: none" transform="matrix(1.0,0.0,0.0,1.0,-264.25561111111114,-183.78851111111112)"><set attributeName="opacity" to="0.20000000298023224"/></path><path id="idf6a1fc81a9408374f169e064" d="M -170.6,44.799 C -170.6,55.698 -171.1,60.798 -171.1,60.798 C -171.1,60.798 -135.801,51.999 -100.902,67.897 C -66.002,83.797 58.797,126.797 167.697,104.999 C 276.597,83.201 472.397,57.902 562.996,81.999 C 653.696,106.196 731.994,63.197 731.994,63.197 L 731.994,20.797 C 731.994,20.797 685.294,-6.303 595.496,19.596 C 505.698,45.496 362.698,77.294 258.698,56.094 C 154.698,34.894 128.398,-3.305 43.599,8.394 C -41.201,20.194 -119.9,53.693 -171.099,20.794 C -170.7,30.093 -170.602,37.69 -170.602,43.69 C -170.004,40.593 -164.805,37.194 -160.005,37.894 C -151.705,39.094 -134.205,46.094 -98.506,44.394 C -62.807,42.694 -41.107,54.993 -20.308,69.089 C 0.491,83.188 56.191,82.589 83.59,84.388 C 110.989,86.187 115.989,96.187 115.989,99.086 C 115.989,99.086 109.292,104.986 87.693,103.786 C 66.193,102.687 11.294,93.187 -27.006,83.187 C -65.205,73.187 -61.106,58.487 -90.205,53.189 C -119.304,47.891 -149.202,49.689 -163.401,48.489 C -168.1,48.09 -170.198,46.59 -170.598,44.792 L -170.598,44.792 M 151.802,46.09 C 136.802,45.59 93.603,22.89 65.305,21.791 C 37.006,20.791 9.606,22.791 14.606,18.291 C 19.606,13.791 71.106,12.692 100.205,15.791 C 129.303,18.791 157.603,33.989 157.603,33.989 C 157.603,33.989 166.802,46.586 151.802,46.086 L 151.802,46.086 M 710.496,33.787 C 702.996,39.686 704.696,40.283 683.898,39.083 C 663.1,37.883 652.302,43.782 615.702,48.482 C 579.102,53.182 584.102,39.082 587.4,33.183 C 590.698,27.284 634.798,19.684 667.197,20.184 C 699.697,20.783 717.995,27.882 710.495,33.781 L 710.495,33.781 M 521.795,47.281 C 532.593,39.083 551.693,46.683 563.39,54.381 C 574.99,61.981 603.19,61.981 633.988,60.884 C 664.786,59.684 683.084,46.184 699.684,52.083 C 716.283,57.982 696.485,69.779 691.386,70.878 C 610.787,89.176 596.587,81.479 564.987,77.38 C 533.388,73.18 510.989,55.581 521.787,47.282 L 521.787,47.282 M 303.888,76.781 C 293.888,76.781 197.489,69.084 182.489,59.084 C 167.489,49.084 191.587,46.685 216.587,57.284 C 241.486,67.883 322.986,68.482 357.086,69.081 C 391.186,69.68 454.385,59.081 484.284,57.881 C 514.183,56.681 505.885,61.979 507.584,64.378 C 507.584,64.378 467.685,64.378 450.185,65.575 C 432.685,66.772 341.286,76.772 307.186,76.173 C 273.187,75.574 313.886,76.774 303.886,76.774 L 303.886,76.774 M 165.087,97.971 C 145.99,97.372 139.291,77.973 96.092,72.674 C 52.892,67.275 3.292,67.775 -10.308,51.375 C -24.007,34.975 37.893,29.076 81.091,34.374 C 124.291,39.672 149.288,62.072 179.987,71.47 C 210.686,80.869 206.588,86.769 191.588,93.269 C 191.686,93.17 184.186,98.469 165.088,97.969 L 165.088,97.969 M -170.612,44.769 " style="fill: #5a798c; fill-opacity: 1.0; stroke: none" transform="matrix(1.0,0.0,0.0,1.0,-184.5191111111111,-179.48479688888887)"><set attributeName="opacity" to="0.11999999731779099"/></path><path id="id9b0920939d892b1335ccbd2d" d="M 545.599,240.199 C 553.897,225.699 557.397,213.899 567.796,211.801 C 578.195,209.703 589.294,211.801 596.193,198.602 C 603.092,185.403 602.392,174.403 609.392,166.103 C 616.291,157.803 625.988,156.404 630.188,150.205 C 634.388,144.006 640.088,126.707 640.088,126.707 L 640.088,243.006 L 545.588,240.206 L 545.588,240.206 M 545.588,240.206 " style="fill: #495b73; fill-opacity: 1.0; stroke: none" transform="matrix(1.0,0.0,0.0,1.0,-280.448,-180.0005)"/><path id="id88dac8761bbc2012ecc45194" d="M 4.3,172.6 C 4.3,172.6 -13.599,155.401 -2.9,145.101 C 7.7,134.801 20.399,122.103 12.901,111.103 C 5.402,100.103 10.201,95.304 15.6,96.704 C 21.1,98.104 30.4,114.903 25.6,123.502 C 20.8,132.097 9.501,141.997 10.801,146.196 C 12.2,150.294 43.099,145.494 36.2,122.195 C 29.301,98.896 19.701,80.698 32.1,75.198 C 44.499,69.698 40.299,83.797 38.299,87.896 C 36.299,91.995 33.501,112.995 42.098,111.196 C 50.698,109.499 44.498,96.099 44.498,89.599 C 44.498,83.099 52.696,77.599 55.095,86.198 C 57.494,94.797 63.692,110.896 55.793,117.096 C 47.894,123.293 44.797,131.191 44.797,139.39 C 44.797,147.589 34.797,156.187 25.197,161.386 C 15.597,166.585 44.097,185.085 51.297,167.186 C 58.497,149.287 43.698,146.887 55.097,135.988 C 66.492,125.089 79.79,129.089 79.093,132.888 C 78.396,136.687 76.696,139.087 70.897,140.087 C 65.098,141.087 58.499,147.286 61.599,152.086 C 64.699,156.886 87.298,152.386 87.698,139.687 C 88.098,126.989 82.898,120.089 88.398,118.089 C 93.898,115.99 96.298,118.089 97.698,126.989 C 99.098,135.884 101.498,152.083 92.2,157.583 C 82.902,163.083 75.705,167.181 67.106,167.58 C 58.507,167.88 62.305,177.88 53.406,184.38 C 44.507,190.88 36.608,193.279 30.41,194.679 C 24.212,196.079 4.312,172.579 4.312,172.579 L 4.312,172.579 M 4.312,172.579 " style="fill: #495b73; fill-opacity: 1.0; stroke: none" transform="matrix(0.9933739321692996,-0.11492706768426597,0.3424168932886903,0.9670548012377808,-347.1754080432222,-174.30921534037319)"/><path id="id53ce4ab308d04b334c0236c1" d="M -250.075,-17.971 C -255.19,-17.971 -261.629,-13.41 -265.523,-9.686 L -265.523,-9.686 C -274.099,-13.59 -281.478,-10.944 -281.478,-10.944 C -281.478,15.754 -281.084,181.97 -281.084,181.97 L 358.915,181.97 L 359.114,57.675 L 359.114,57.675 L 359.114,57.675 L 359.114,57.675 L 359.114,57.675 L 359.114,57.675 C 359.123,57.677 359.127,57.677 359.129,57.677 C 359.131,57.677 359.124,57.675 359.108,57.67 L 359.108,57.67 L 359.11,57.67 L 359.11,57.673 L 359.11,57.673 C 358.207,57.5 326.801,49.964 271.01,49.772 C 269.946,49.767 268.872,49.765 267.788,49.765 C 230.032,49.765 181.464,53.191 123.919,64.269 C 50.256,78.484 -10.56,83.731 -57.239,83.731 C -104.471,83.731 -137.228,78.359 -154.177,71.469 C -171.37,64.468 -187.561,59.166 -202.795,55.216 L -202.795,55.216 C -200.209,52.174 -197.498,48.491 -195.787,45.376 C -192.488,39.376 -207.687,30.178 -207.687,30.178 C -207.687,30.178 -195.187,21.98 -194.089,16.581 C -192.991,11.182 -217.988,4.083 -217.988,4.083 C -217.988,4.083 -205.991,-5.717 -218.488,-9.517 C -220.627,-10.167 -222.67,-10.436 -224.583,-10.436 C -233.863,-10.436 -240.181,-4.117 -240.181,-4.117 C -240.181,-4.117 -239.083,-12.815 -246.681,-17.115 C -247.695,-17.7 -248.834,-17.957 -250.05,-17.957 L -250.05,-17.957 " style="fill: #5a798c; fill-opacity: 1.0; stroke: none" transform="matrix(1.0,0.0,0.0,1.0,0.9859999999999971,1.0)"/><path id="id8f1ddebe4fc482d8531716f1" d="M -0.2,276.7 C -1.9,277.3 86.7,255.3 234.999,283.3 C 384.398,311.598 475.597,301.199 513.094,290.5 C 550.694,279.7 605.492,264.001 639.992,264.001 C 639.792,266.2 639.992,359.999 639.992,359.999 L -0.008,359.999 L -0.208,276.701 L -0.208,276.701 M -0.208,276.701 " style="fill: #f2e085; fill-opacity: 1.0; stroke: none" transform="matrix(1.0,0.0,0.0,1.0,-280.90000000000003,-178.02849999999998)"/><path id="idc174701be0e9918bad092baf" d="M 551.9,230.5 " style="fill: #495b73; fill-opacity: 1.0; stroke: none" transform="matrix(1.0,0.0,0.0,1.0,-280.448,-180.0)"/><path id="id6df47c5d220f1c95283da7c5" d="M 598.799,211 C 596.001,212.399 573.901,202.7 577.3,185.4 C 580.8,168.1 593.199,166.701 582.8,147.301 C 572.401,127.901 544.704,118.903 553.704,107.105 C 562.704,95.307 603.803,141.504 596.204,164.504 C 588.504,187.403 583.504,201.303 593.903,190.903 C 604.302,180.503 617.701,148.507 602.701,128.909 C 589.501,111.711 589.102,98.112 598.799,89.112 C 608.496,80.112 618.196,87.012 616.797,92.611 C 615.398,98.111 600.898,100.91 604.998,112.009 C 609.098,123.108 623.295,138.206 622.595,149.304 C 621.895,160.402 610.097,171.5 615.597,180.5 C 621.097,189.5 659.496,154 641.996,141 C 631.698,133.301 609.598,107.901 620.298,103.102 C 630.998,98.303 628.998,114.503 637.698,124.102 C 645.698,132.901 666.597,148.801 652.097,168.899 C 637.597,188.997 617.498,195.896 616.798,205.595 C 616.098,215.193 598.8,210.994 598.8,210.994 L 598.8,210.994 M 598.8,210.994 " style="fill: #495b73; fill-opacity: 1.0; stroke: none" transform="matrix(0.9935415177849664,0.11346916954638131,-0.3251852495995551,0.9693621077117899,-207.2943039744889,-248.06753783620118)"/></g><g id="id0fd0ceb7acb42b3a5ca3d978" transform="matrix(1.0,0.0,0.0,1.0,-0.0,-0.0)"><g id="id9e0ec6700f926290bacb5cda" transform="matrix(1.0113462640689104,0.0,0.0,1.0113462640689104,112.123751347024,218.91278012845325)"><set attributeName="opacity" to="1"/><g id="idbd381da8db0230a584dfb1f6" transform="matrix(0.7764170713368183,0.0,0.0,0.6431328856096223,15.4,-9.379)"><path id="idd080617c220bc71030ca2c0c" d="M 78.204,-132.003 L 78.204,109.264 L 52.137,109.264 L 52.137,115.363 L 109.817,115.363 L 109.817,109.264 L 84.304,109.264 L 84.304,-132.003 L 78.205,-132.003 " style="fill: #33334a; fill-opacity: 1.0; stroke: none" transform="matrix(1.0,0.0,0.0,1.0,-79.00019999999999,8.3195)"/><path id="id29d14b75f47e45aeed38f5b1" d="M 41.776,-121.848 L 34.816,22.629 L 123.591,24.368 L 123.591,-120.109 L 41.779,-121.848 M 41.779,-121.848 " style="fill: #e1e4e6; fill-opacity: 1.0; stroke: none" transform="matrix(1.0,0.0,0.0,1.0,-79.0006,8.320400000000006)"/><path id="idd912304d006e9ca88b314a7b" d="M 0,0 L 86.523,0 L 86.523,8.874 L 0,8.874 L 0,0 M 0,0 Z" style="fill: #33334a; fill-opacity: 1.0; stroke: none" transform="matrix(1.0,0.0,0.0,1.0,-39.0668,-117.0281)"/><path id="id3f638f786931abc6864efb71" d="M 0,0 L 86.523,0 L 86.523,8.874 L 0,8.874 L 0,0 M 0,0 Z" style="fill: #33334a; fill-opacity: 1.0; stroke: none" transform="matrix(1.1406902889880621,0.0,0.0,0.7548696890397171,-49.34831514414375,26.96956770276187)"/></g><g id="id93ae2161af32fae756ae77bc" transform="matrix(1.2743808671154093,0.0,0.0,1.2743808671154093,-44.273,18.064)"><path id="id5a4aa47bc40c7ed7ed1b6359" d="M 155.54,268.896 L 155.508,288.136 M 155.54,268.896 Z" style="fill: none; stroke: #ffe0bd; stroke-width: 3.5; stroke-opacity: 1.0" transform="matrix(1.0,0.0,0.0,1.0,-152.25289999999998,-253.7466)"/><path id="id30fc9c55930b28e631e14c64" d="M 155.391,302.424 L 155.506,288.138 M 155.391,302.424 Z" style="fill: none; stroke: #ffe0bd; stroke-width: 3.5; stroke-opacity: 1.0" transform="matrix(1.0,0.0,0.0,1.0,-152.2531,-253.74600000000004)"/><path id="idc9cdc6e11e84512ae319f075" d="M 155.54,268.896 L 155.508,288.136 M 155.54,268.896 Z" style="fill: none; stroke: #ffe0bd; stroke-width: 3.5; stroke-opacity: 1.0" transform="matrix(-1.0,0.0,0.0,1.0,152.81889999999999,-253.6466)"/><path id="idb340d38abf3cf52d33b04e71" d="M 155.391,302.424 L 155.506,288.138 M 155.391,302.424 Z" style="fill: none; stroke: #ffe0bd; stroke-width: 3.5; stroke-opacity: 1.0" transform="matrix(-1.0,0.0,0.0,1.0,152.8191,-253.64700000000002)"/><path id="iddae8665d0483afef5b2ff5a7" d="M 303,269.666 L 314.846,269.666 L 317.665,267.666 L 317.665,269.666 L 320.962,269.666 L 320.58,261.948 L 314.429,262.149 L 307.377,266.999 L 304.341,267.895 " style="fill: #6a0509; fill-opacity: 1.0; stroke: none" transform="matrix(0.5304026910915253,0.0,0.0,0.6776962618959752,-170.8275202567722,-130.8939222387027)"/><path id="idf690ede90e3ce91b50d2bcbf" d="M 0,0 C 2.745,-6.083 12.388,-6.676 15.577,0.001 L 13.766,15.283 L 2.515,15.158 L 0.001,0.001 " style="fill: #31373f; fill-opacity: 1.0; stroke: none" transform="matrix(1.0,0.0,0.0,1.3464776398156355,-7.876799999999999,12.000633489383048)"/><path id="id6fa26141486b1294757c22c4" d="M 303,269.666 L 314.846,269.666 L 317.665,267.666 L 317.665,269.666 L 320.962,269.666 L 320.58,261.948 L 314.429,262.149 L 307.377,266.999 L 304.341,267.895 " style="fill: #6a0509; fill-opacity: 1.0; stroke: none" transform="matrix(-0.5304026910915253,0.0,0.0,0.6776962618959752,171.4755202567722,-130.9549222387027)"/><g id="id41d3d57df9c558ad4832aa7a" transform="matrix(1.0,0.0,0.0,1.0,-0.999,-26.484)"><path id="ida6f3cf5a13ff26cdc703edf1" d="M 158.886,240.299 L 159.478,253.057 M 158.886,240.299 Z" style="fill: none; stroke: #cd1873; stroke-width: 3.0; stroke-opacity: 1.0" transform="matrix(-0.9563047559630355,-0.2923717047227367,-0.2923717047227367,0.9563047559630355,215.5024140322628,-170.28449373843574)"/><g id="id0f090a30d88845562d61a90e" transform="matrix(-0.23070582634474734,0.3592589280267019,0.2718704613162557,0.6447358377115224,-11.199,24.7)"><path id="id283e2cd8ee22f3217db5a832" d="M 2.176,2.176 L 0,0 L 25.462,0 L 25.462,35.908 L 0,35.908 L 0,0 M 0,0 " style="fill: #3c5e7a; fill-opacity: 1.0; stroke: none" transform="matrix(1.0,0.0,0.0,1.0,-12.7313,-17.9544)"/><path id="id0a8a40605b108ff410e86975" d="M 0,0 L 20.674,0 L 20.674,31.773 L 0,31.773 L 0,0 M 0,0 Z" style="fill: #d2d3d5; fill-opacity: 1.0; stroke: none" transform="matrix(1.0,0.0,0.0,1.0,-10.772400000000001,-16.213)"/><path id="id29a69e360efaf6804155d78e" d="M -105.156,-27.886 L -105.156,-24.447 L -113.755,-24.447 L -113.755,-27.886 L -105.156,-27.886 M -114.368,-28.375 L -114.368,-23.708 L -104.418,-23.708 L -104.418,-28.375 L -114.368,-28.375 " style="fill: #5a5b5c; fill-opacity: 1.0; stroke: none" transform="matrix(1.0,0.0,0.0,1.0,109.0933,10.490299999999998)"/></g><g id="id3abeee92423b3a82e02ae694" transform="matrix(1.3866967700974693,0.0,0.0,1.3866967700974693,-0.002,-15.513)"><path id="id6925773b7b3a6f8910aa60a7" d="M 145.147,210.134 C 145.147,210.134 145.008,211.732 144.91,214.032 L 144.91,214.032 C 142.937,214.106 141.345,214.744 141.345,219.174 C 141.345,223.516 143.145,223.566 145.29,223.566 C 145.344,223.566 145.398,223.566 145.453,223.566 C 146.74,223.566 147.885,223.046 148.62,222.055 L 148.62,222.055 L 158.097,222.419 C 158.097,222.419 158.945,219.869 159.037,218.451 C 159.129,217.033 158.562,210.604 158.562,210.604 L 145.137,210.132 L 145.137,210.132 " style="fill: #ff5722; fill-opacity: 1.0; stroke: none" transform="matrix(1.0,0.0,0.0,1.0,-150.7375,-218.1268)"/><path id="id08c52e647dbc8562acaa9be1" d="M 0.378,1.891 C 0.378,0.847 0.719,0.001 1.606,0.001 C 2.493,0.001 3.211,0.847 3.211,1.891 C 3.211,2.935 3.155,3.875 2.268,3.875 C 1.381,3.875 0.379,2.935 0.379,1.891 M 0.379,1.891 " style="fill: #ffe0bd; fill-opacity: 1.0; stroke: none" transform="matrix(1.0,0.0,0.0,1.0,-7.2495,2.2718000000000003)"/><path id="id9bef0bb0aeb3c177049724ed" d="M 0.378,1.891 C 0.378,0.847 0.719,0.001 1.606,0.001 C 2.493,0.001 3.211,0.847 3.211,1.891 C 3.211,2.935 3.155,3.875 2.268,3.875 C 1.381,3.875 0.379,2.935 0.379,1.891 M 0.379,1.891 " style="fill: #ffe0bd; fill-opacity: 1.0; stroke: none" transform="matrix(-1.0,0.0,0.0,1.0,9.7745,2.1298)"/><g id="id3fa1746bd868964b8e9a6233" transform="matrix(1.0,0.0,0.0,1.0,7.824,7.211)"><path id="idd29b6eee2ed03b6730fcabcb" d="M 158.495,223.648 L 158.525,225.74 M 158.495,223.648 Z" style="fill: none; stroke: #9e9e9e; stroke-width: 0.5; stroke-opacity: 1.0" transform="matrix(1.0,0.0,0.0,1.0,-158.56169999999997,-225.3389)"/><path id="idbb134c14095e297673648f0d" d="M 0,0.748 C 0,0.335 0.307,0 0.685,0 C 1.063,0 1.369,0.335 1.369,0.748 C 1.369,1.161 1.063,1.495 0.685,1.495 C 0.307,1.495 0,1.161 0,0.748 " style="fill: #e1e8ee; fill-opacity: 1.0; stroke: #9e9e9e; stroke-width: 0.2; stroke-opacity: 1.0" transform="matrix(1.0,0.0,0.0,1.0,-0.686,0.1926)"/></g><path id="idf10544593da773de16f343f1" d="M 0,15.367 C 0,6.88 0,0.139 6.368,0.001 C 12.736,-0.137 12.736,6.881 12.736,15.368 C 12.736,23.855 9.887,30.733 6.371,30.733 C 2.854,30.733 0.003,23.855 0.003,15.368 M 0.003,15.368 " style="fill: #ffe0bd; fill-opacity: 1.0; stroke: none" transform="matrix(1.0,0.0,0.0,1.0,-5.106400000000001,-14.4962)"/><g id="idbb0d3a27b29934bd1c7c8e45" transform="matrix(0.5537221650327201,-0.029019349009162507,0.029019349009162507,0.5537221650327201,1.285,10.928)"><g id="id5cb14b9f0a99dde621ff37e30" transform="matrix(1.0,0.0,0.0,1.0,-0.0,-0.0)"><path id="id55fa7ab055d1a817034a6b04" d="M 313.74,66.753 C 313.74,66.753 316.956,65.127 319.436,65.087 C 322.383,65.041 325.13,66.795 325.13,66.795 C 325.13,66.795 323.164,69.486 322.112,70.377 C 320.737,71.542 318.322,71.042 317.238,70.502 C 316.063,69.918 313.741,66.756 313.741,66.756 L 313.741,66.756 M 313.741,66.756 " style="fill: #cd1873; fill-opacity: 1.0; stroke: none" transform="matrix(1.0,0.0,0.0,1.0,-319.4355,-68.0866)"/><path id="id7af110348a7d2f061e3d5353" d="M 315.075,67.086 C 315.803,66.086 323.406,66.533 324.071,67.085 C 323.302,67.835 321.947,68.791 321.239,69.166 C 320.531,69.541 318.277,69.4 317.922,69.212 C 317.567,69.024 316.065,68.383 315.078,67.093 L 315.078,67.093 M 315.078,67.093 " style="fill: #fbfbfa; fill-opacity: 1.0; stroke: none" transform="matrix(1.0,0.0,0.0,1.0,-319.4355,-68.08550000000001)"/></g></g><g id="ida3b240be2b5c09abf98fbd05" transform="matrix(-1.0,0.0,0.0,1.0,-5.25,7.462)"><path id="id81d76672a3fa5b7a27652391" d="M 158.495,223.648 L 158.525,225.74 M 158.495,223.648 Z" style="fill: none; stroke: #9e9e9e; stroke-width: 0.5; stroke-opacity: 1.0" transform="matrix(1.0,0.0,0.0,1.0,-158.56169999999997,-225.3389)"/><path id="id55099196ff5f044ad4465d67" d="M 0,0.748 C 0,0.335 0.307,0 0.685,0 C 1.063,0 1.369,0.335 1.369,0.748 C 1.369,1.161 1.063,1.495 0.685,1.495 C 0.307,1.495 0,1.161 0,0.748 " style="fill: #e1e8ee; fill-opacity: 1.0; stroke: #9e9e9e; stroke-width: 0.2; stroke-opacity: 1.0" transform="matrix(1.0,0.0,0.0,1.0,-0.686,0.1926)"/></g><path id="ide6e7635c124fca603712af79" d="M 152.146,202.034 C 152.079,202.034 152.011,202.034 151.943,202.035 C 146.238,202.151 145.1,206.719 144.877,213.114 L 144.877,213.114 C 146.356,212.864 148.799,212.123 150.634,209.924 C 153.402,206.602 153.952,205.357 153.952,205.357 C 153.952,205.357 156.953,207.752 158.336,217.165 C 158.583,218.858 158.154,216.427 158.365,217.5 C 158.226,217.444 158.943,219.285 158.975,218.199 C 159.257,208.602 159.07,202.034 152.146,202.034 L 152.146,202.034 " style="fill: #ff5722; fill-opacity: 1.0; stroke: none" transform="matrix(1.0,0.0,0.0,1.0,-150.69750000000002,-218.2723)"/><g id="iddde6726691f997943197ca60" transform="matrix(0.8276670091597065,0.0,0.0,0.8275272042720877,4.694,1.155)"><path id="ide26b409bb629121903152b3e0" d="M 0,1.606 C 0,0.719 0.376,0 0.838,0 C 1.301,0 1.676,0.719 1.676,1.606 C 1.676,2.493 1.301,3.211 0.838,3.211 C 0.375,3.211 -0.001,2.493 -0.001,1.606 " style="fill: #ffffff; fill-opacity: 1.0; stroke: #bd9e91; stroke-width: 0.5; stroke-opacity: 1.0" transform="matrix(1.0,0.0,0.0,1.0,-0.84,-1.6069)"/></g><g id="idca735eb6d680630f335c5ed9" transform="matrix(-0.8276670091597065,0.0,0.0,0.8275272042720877,-2.001,1.308)"><path id="ida31aa3381565e04c841598cb0" d="M 0,1.606 C 0,0.719 0.376,0 0.838,0 C 1.301,0 1.676,0.719 1.676,1.606 C 1.676,2.493 1.301,3.211 0.838,3.211 C 0.375,3.211 -0.001,2.493 -0.001,1.606 " style="fill: #ffffff; fill-opacity: 1.0; stroke: #bd9e91; stroke-width: 0.5; stroke-opacity: 1.0" transform="matrix(1.0,0.0,0.0,1.0,-0.84,-1.6069)"/></g><path id="idf6428dc46843efc4665ba9d0" d="M 0,0 L 2.24,0.149 C 2.651,0.275 2.651,0.992 2.24,1.042 L 0,1.042 C -0.374,0.991 -0.523,0.162 0,-0.002 M 0,-0.002 " style="fill: #6d282c; fill-opacity: 1.0; stroke: none" transform="matrix(-1.1346650220071737,0.2829037638330623,0.23650471277903798,0.9485685927055366,-1.0225065021800424,-2.574585653298628)"/><path id="id067f4e4492e2bb3522597d22" d="M 0,0 L 2.24,0.149 C 2.651,0.275 2.651,0.992 2.24,1.042 L 0,1.042 C -0.374,0.991 -0.523,0.162 0,-0.002 M 0,-0.002 " style="fill: #6d282c; fill-opacity: 1.0; stroke: none" transform="matrix(1.143847013706407,0.24313218830995662,-0.20325607402493356,0.9562446457920837,3.841037088610076,-2.5341258596339697)"/><path id="idd78160f980d803ba28317b46" d="M 0,0 L 1.134,0 L 1.192,5.973 C 1.031,6.57 0.159,6.688 -0.002,5.972 L -0.002,-0.001 M -0.002,-0.001 " style="fill: url(#idd78160f980d803ba28317b46lgf); stroke: none" transform="matrix(1.0,0.0,0.0,1.0,0.6954999999999999,0.10749999999999993)"><set attributeName="opacity" to="0.5"/></path></g><g id="id38cff0c92b30c4e8f772828a" transform="matrix(-0.5304195661451907,-0.9187136378921116,0.6144155328238873,-0.35473297327015846,-18.003632882616426,33.123465321950064)"><path id="idcf93f2d9ffbcd45d962628d2" d="M -0.219,2.558 C -0.219,0.964 0.622,0.001 1.389,0.001 C 2.156,0.001 2.777,1.292 2.777,2.885 C 2.777,4.479 2.43,6.375 1.059,6.321 C 0.292,6.291 -0.221,4.152 -0.221,2.558 M -0.221,2.558 " style="fill: #ffe0bd; fill-opacity: 1.0; stroke: none" transform="matrix(0.8489044588951247,-0.08922345396579495,0.08922345396579495,0.8489044588951247,-1.2627707797368386,3.7109117110894654)"/></g><g id="idef7dfa5c14ca1245bf792fe3" transform="matrix(1.0,0.0,0.0,1.0,0.999,21.491)"><path id="id72762f3870f47ba408d2a68f" d="M 151.948,236.782 C 149.63,236.782 147.36,237.594 144.06,239.096 L 147.919,256.275 L 147.845,256.349 C 146.535,258.901 143.199,265.203 143.315,265.203 L 160.972,265.203 C 160.972,265.203 157.368,258.59 156.002,256.151 L 156.002,256.151 L 159.938,239.238 C 156.55,237.557 154.232,236.775 151.957,236.775 L 151.957,236.775 " style="fill: #cd1873; fill-opacity: 1.0; stroke: none" transform="matrix(1.0,0.0,0.0,1.0,-152.1429,-248.663)"/><path id="idc29da087d5642d021a159db3" d="M 0,0 L 2.694,0 L 2.694,4.459 C 2.444,5.452 0.066,5.417 0.001,4.276 L 0.001,0.003 M 0.001,0.003 M 0.001,0.003 " style="fill: #ffe0bd; fill-opacity: 1.0; stroke: none" transform="matrix(1.0,0.0,0.0,1.0,-1.311,-16.5539)"/><path id="ida1aa11140f0cc5b37affceff" d="M 149.953,235.678 L 149.953,236.822 L 149.953,236.822 C 149.236,236.961 148.495,237.172 147.701,237.452 L 147.701,237.452 C 147.912,240.96 149.801,246.647 152.155,249.88 C 154.032,246.878 156.806,241.531 156.579,237.558 L 156.579,237.558 C 155.827,237.276 155.128,237.059 154.459,236.904 L 154.459,236.904 L 154.459,235.675 L 149.963,235.675 " style="fill: #ffffff; fill-opacity: 1.0; stroke: none" transform="matrix(1.0,0.0,0.0,1.0,-152.0989,-248.5377)"/><path id="id3dd0c4c370d21f473fe12065" d="M 151.454,235.678 L 151.454,248.841 L 151.454,248.841 C 151.681,249.212 151.914,249.56 152.149,249.884 C 152.407,249.471 152.683,249.011 152.965,248.516 L 152.965,248.516 L 152.965,235.675 L 151.446,235.675 " style="fill: #3f51b5; fill-opacity: 1.0; stroke: none" transform="matrix(1.0,0.0,0.0,1.0,-152.1377,-248.5537)"/></g><g id="id4c20a8bcda319bf182c9b85c" transform="matrix(0.6743415701573691,-0.13044369761087812,0.1488524920715136,0.7695076501493701,24.410312816784174,-7.193064618565742)"><path id="id405591c08e8f6a9fbf55f2e7" d="M 335.799,33.768 L 385.356,-16.6 L 385.798,-15.848 L 336.784,35.399 L 335.801,33.768 M 335.801,33.768 " style="fill: #6b5139; fill-opacity: 1.0; stroke: none" transform="matrix(0.6631787726525101,-0.034755726742370915,0.034755726742370915,0.6631787726525101,-227.61396267906733,1.5795530827234963)"/><g id="id7a68d81e35bea077e9cce72d" transform="matrix(1.0,0.0,0.0,1.0,-15.219,16.247)"><path id="idc2612b552903512270189238" d="M 158.886,240.299 L 159.478,253.057 M 158.886,240.299 Z" style="fill: none; stroke: #cd1873; stroke-width: 3.0; stroke-opacity: 1.0" transform="matrix(-0.017452406437283477,-0.9998476951563913,0.9998476951563913,-0.017452406437283477,-251.72920801261327,168.6041702735792)"/><g id="ide4f960c9d8302174d6a2aac0" transform="matrix(-0.5735764363510462,-0.8191520442889917,0.8191520442889917,-0.5735764363510462,5.874892103167247,-3.636270574554068E-4)"><path id="id63f94da86ee3ce425e302adf" d="M -0.219,2.558 C -0.219,0.964 0.622,0.001 1.389,0.001 C 2.156,0.001 2.777,1.292 2.777,2.885 C 2.777,4.479 2.43,6.375 1.059,6.321 C 0.292,6.291 -0.221,4.152 -0.221,2.558 M -0.221,2.558 " style="fill: #ffe0bd; fill-opacity: 1.0; stroke: none" transform="matrix(0.9500473031755955,0.09985399526648925,-0.09985399526648925,0.9500473031755955,-0.898437334942252,2.7230163925913127)"/><path id="id9cb24d2a5bf99da4af36a432" d="M -2.745,-14.416 C -2.78,-16.077 -0.25,-16.877 -0,-14.413 L -0.104,-0.935 L -2.792,-0.991 L -2.745,-14.412 " style="fill: #cd1873; fill-opacity: 1.0; stroke: none" transform="matrix(1.0994861738642014,0.0,0.0,0.9709900288119995,1.5997708908889763,6.507398736323829)"/></g></g></g></g></g></g></g><g id="id528cb55eb0d23d8e9f387abf" transform="matrix(1.0,0.0,0.0,1.0,5.0,330.203)"><g id="id2a7fefa357de0e43c97b08ce" transform="matrix(1.0,0.0,0.0,1.0,70.498,12.399)"><g id="iddb08dcbb1013a5fa0baee8f0" transform="matrix(1.0,0.0,0.0,1.0,-58.1,0.0)"><path id="id9c8569ebc76fb915cf7a6ff7" d="M 23.5,12.5 C 23.5,18.684 18.531,23.697 12.402,23.697 C 6.272,23.697 1.303,18.685 1.303,12.501 C 1.303,6.316 6.272,1.302 12.402,1.302 C 18.531,1.302 23.5,6.316 23.5,12.501 L 23.5,12.501 M 23.5,12.501 " style="fill: #38393a; fill-opacity: 1.0; stroke: none" transform="matrix(1.0,0.0,0.0,1.0,-12.399,-12.399)"/><g id="idba9ddac73055fa8a9b6a1b3d" transform="matrix(1.0,0.0,0.0,1.0,-0.0,-0.0)"><path id="id27b62fa77d5232908081806b" d="M 12.399,0.5 C 5.8,0.5 0.5,5.8 0.5,12.399 C 0.5,18.999 5.8,24.297 12.399,24.297 C 18.999,24.297 24.296,18.999 24.296,12.399 C 24.296,5.799 18.897,0.5 12.397,0.5 L 12.397,0.5 M 18.296,16 C 17.696,17 16.997,18.1 16.798,18.397 L 16.798,18.497 L 16.698,18.497 C 16.299,18.696 14.899,19.095 14.201,19.095 C 14.201,19.095 14.102,19.095 14.102,19.095 L 14.003,19.095 C 13.203,18.798 11.403,18.198 10.804,17.999 C 9.804,18.398 8.804,18.898 7.804,19.398 C 7.304,19.597 6.904,19.894 6.404,20.093 C 6.404,20.093 6.404,20.093 6.404,20.093 C 6.404,20.093 5.404,20.693 5.204,20.693 L 4.905,20.693 L 4.905,20.396 C 4.905,19.796 5.004,18.397 5.103,18.1 C 6.401,4.1 11.6,2.902 11.798,2.802 C 11.996,2.802 12.296,2.703 12.494,2.703 L 12.593,2.703 C 12.692,2.703 12.692,2.703 12.791,2.703 C 17.09,2.703 21.289,13.703 21.488,14.203 C 21.588,14.401 21.787,15.099 21.887,15.198 L 21.987,15.498 L 18.289,15.997 L 18.289,15.997 M 12.39,0.497 " style="fill: #ffbc00; fill-opacity: 1.0; stroke: none" transform="matrix(1.0,0.0,0.0,1.0,-12.399,-12.3985)"/><path id="id2df9401919b847fa77e2aa94" d="M 13.899,7.8 C 13.201,7.8 12.602,7.501 12.602,7.501 L 11.503,7.001 L 12.701,7.001 C 13.099,7.001 13.297,6.803 13.495,6.504 C 13.693,6.205 13.594,5.906 13.495,5.706 C 13.195,5.206 12.895,5.008 12.498,5.008 C 11.498,5.008 10.399,6.107 9.899,6.706 C 9.3,7.606 8.8,8.705 8.403,10.005 C 9.601,9.406 11.899,8.507 15.798,7.809 L 15.996,7.809 L 16.694,9.809 L 16.397,9.908 C 10.797,10.908 8.198,12.606 7.599,13.003 C 7.3,14.303 7.102,15.803 6.904,17.3 L 10.303,16.101 L 12.303,16.8 C 13.103,17.097 13.603,17.197 14.002,17.396 C 14.601,17.396 15.799,17.099 16.198,16.9 C 16.397,16.603 17.397,15.103 17.796,14.303 L 17.896,14.204 L 17.996,14.204 C 18.695,14.105 19.294,14.006 19.693,14.006 C 18.994,11.907 17.395,8.407 15.995,6.507 C 15.495,7.606 14.495,7.806 13.896,7.806 L 13.896,7.806 M 16.395,13.305 C 15.895,14.404 14.296,15.003 13.098,15.003 C 12.499,15.003 11.999,14.805 11.602,14.607 L 11.404,14.508 L 12.204,13.008 L 12.504,13.206 C 12.603,13.305 12.901,13.404 13.201,13.404 C 14.001,13.404 14.801,13.005 14.9,12.705 L 14.999,12.405 L 16.596,13.103 L 16.397,13.301 L 16.397,13.301 M 13.897,7.801 " style="fill: #ffbc00; fill-opacity: 1.0; stroke: none" transform="matrix(1.0,0.0,0.0,1.0,-12.399000000000001,-12.3985)"/></g></g><g id="id2319d1c099496e030983bfb3" transform="matrix(1.0,0.0,0.0,1.0,14.495,-0.044)"><path id="id5f7a9c14d0574a082224712f" d="M 123.5,7.5 L 116.5,7.5 C 115,7.5 113.803,8.599 113.803,9.996 L 113.803,14.596 C 113.803,15.993 115,17.091 116.5,17.091 L 123.5,17.091 C 125,17.091 126.197,15.992 126.197,14.595 L 126.197,9.995 C 126.197,8.695 125,7.497 123.5,7.497 L 123.5,7.497 M 123.303,13.997 C 123.303,14.497 122.903,14.797 122.403,14.797 L 117.503,14.797 C 117.003,14.797 116.603,14.4 116.603,14 L 116.603,10.603 C 116.603,10.103 117.003,9.706 117.503,9.706 L 122.403,9.706 C 122.903,9.706 123.303,10.105 123.303,10.605 L 123.303,14.004 L 123.303,14.004 M 138,7.604 L 138,14.004 L 133.101,8.504 C 132.503,7.705 131.503,7.606 131.204,7.507 L 131.204,7.507 L 128.204,7.507 L 128.204,17.007 L 131.204,17.007 L 131.204,10.608 C 132.103,11.608 135.302,15.307 136.201,16.106 C 137.4,17.106 138.099,17.106 138.099,17.106 L 138.099,17.106 L 140.998,17.106 L 140.998,7.606 L 137.998,7.606 L 137.998,7.606 M 52.399,14.106 L 47.5,8.606 C 46.903,7.807 45.903,7.708 45.605,7.609 L 45.605,7.609 L 42.605,7.609 L 42.605,17.109 L 45.605,17.109 L 45.605,10.71 C 46.504,11.71 49.702,15.409 50.601,16.208 C 51.801,17.208 52.501,17.208 52.501,17.208 L 52.501,17.208 L 55.4,17.208 L 55.4,7.608 L 52.4,7.608 L 52.4,14.108 L 52.4,14.108 M 57.299,17.107 L 60.299,17.107 L 60.299,7.607 L 57.299,7.607 L 57.299,17.107 L 57.299,17.107 M 89.097,9.908 L 92.997,9.908 L 92.997,17.107 L 95.997,17.107 L 95.997,9.908 L 99.796,9.908 L 99.796,7.61 L 89.096,7.61 L 89.096,9.908 L 89.096,9.908 M 112.195,10.507 C 112.392,10.207 112.592,10.108 112.691,9.708 C 112.99,8.408 111.09,7.71 110.291,7.71 L 108.492,7.71 L 103.893,7.71 L 103.893,7.71 L 100.893,7.71 L 100.893,7.71 L 100.893,10.01 L 100.893,17.208 L 103.893,17.208 L 103.893,9.908 L 108.992,9.908 L 106.193,13.007 L 109.89,17.107 L 113.587,17.107 L 109.89,13.007 L 112.189,10.507 L 112.189,10.507 M 82.689,7.607 L 82.689,7.607 L 82.689,7.607 L 77.689,17.107 L 80.886,17.207 L 84.286,10.707 L 87.686,17.207 L 90.883,17.107 L 85.883,7.607 L 82.686,7.607 L 82.686,7.607 M 33.987,7.607 L 33.987,7.607 L 33.987,7.607 L 28.987,17.107 L 32.187,17.207 L 35.586,10.707 L 38.985,17.207 L 42.185,17.107 L 37.185,7.607 L 33.985,7.607 L 33.985,7.607 M 74.384,7.607 L 74.384,7.607 C 74.085,7.607 73.388,7.706 72.888,8.404 L 69.789,13.103 L 66.69,8.404 C 66.29,7.706 65.593,7.607 65.294,7.607 L 65.294,7.607 L 62.294,7.607 L 62.294,17.106 L 65.294,17.106 L 65.294,10.907 L 69.194,17.106 L 69.694,17.106 L 69.793,17.106 L 70.293,17.106 L 74.293,10.806 L 74.293,17.106 L 77.293,17.106 L 77.293,7.607 L 74.494,7.607 C 74.593,7.607 74.593,7.607 74.396,7.607 L 74.396,7.607 M 123.494,7.508 " style="fill: #ffffff; fill-opacity: 1.0; stroke: none" transform="matrix(1.0,0.0,0.0,1.0,-84.9945,-12.3535)"/><path id="id80d7d273f82fd9f4ebac4084" d="M 123.5,7.5 L 116.5,7.5 C 115,7.5 113.803,8.599 113.803,9.996 L 113.803,14.596 C 113.803,15.993 115,17.091 116.5,17.091 L 123.5,17.091 C 125,17.091 126.197,15.992 126.197,14.595 L 126.197,9.995 C 126.197,8.695 125,7.497 123.5,7.497 L 123.5,7.497 M 123.303,13.997 C 123.303,14.497 122.903,14.797 122.403,14.797 L 117.503,14.797 C 117.003,14.797 116.603,14.4 116.603,14 L 116.603,10.603 C 116.603,10.103 117.003,9.706 117.503,9.706 L 122.403,9.706 C 122.903,9.706 123.303,10.105 123.303,10.605 L 123.303,14.004 L 123.303,14.004 M 138,7.604 L 138,14.004 L 133.101,8.504 C 132.503,7.705 131.503,7.606 131.204,7.507 L 131.204,7.507 L 128.204,7.507 L 128.204,17.007 L 131.204,17.007 L 131.204,10.608 C 132.103,11.608 135.302,15.307 136.201,16.106 C 137.4,17.106 138.099,17.106 138.099,17.106 L 138.099,17.106 L 140.998,17.106 L 140.998,7.606 L 137.998,7.606 L 137.998,7.606 M 52.399,14.106 L 47.5,8.606 C 46.903,7.807 45.903,7.708 45.605,7.609 L 45.605,7.609 L 42.605,7.609 L 42.605,17.109 L 45.605,17.109 L 45.605,10.71 C 46.504,11.71 49.702,15.409 50.601,16.208 C 51.801,17.208 52.501,17.208 52.501,17.208 L 52.501,17.208 L 55.4,17.208 L 55.4,7.608 L 52.4,7.608 L 52.4,14.108 L 52.4,14.108 M 57.299,17.107 L 60.299,17.107 L 60.299,7.607 L 57.299,7.607 L 57.299,17.107 L 57.299,17.107 M 89.097,9.908 L 92.997,9.908 L 92.997,17.107 L 95.997,17.107 L 95.997,9.908 L 99.796,9.908 L 99.796,7.61 L 89.096,7.61 L 89.096,9.908 L 89.096,9.908 M 112.195,10.507 C 112.392,10.207 112.592,10.108 112.691,9.708 C 112.99,8.408 111.09,7.71 110.291,7.71 L 108.492,7.71 L 103.893,7.71 L 103.893,7.71 L 100.893,7.71 L 100.893,7.71 L 100.893,10.01 L 100.893,17.208 L 103.893,17.208 L 103.893,9.908 L 108.992,9.908 L 106.193,13.007 L 109.89,17.107 L 113.587,17.107 L 109.89,13.007 L 112.189,10.507 L 112.189,10.507 M 82.689,7.607 L 82.689,7.607 L 82.689,7.607 L 77.689,17.107 L 80.886,17.207 L 84.286,10.707 L 87.686,17.207 L 90.883,17.107 L 85.883,7.607 L 82.686,7.607 L 82.686,7.607 M 33.987,7.607 L 33.987,7.607 L 33.987,7.607 L 28.987,17.107 L 32.187,17.207 L 35.586,10.707 L 38.985,17.207 L 42.185,17.107 L 37.185,7.607 L 33.985,7.607 L 33.985,7.607 M 74.384,7.607 L 74.384,7.607 C 74.085,7.607 73.388,7.706 72.888,8.404 L 69.789,13.103 L 66.69,8.404 C 66.29,7.706 65.593,7.607 65.294,7.607 L 65.294,7.607 L 62.294,7.607 L 62.294,17.106 L 65.294,17.106 L 65.294,10.907 L 69.194,17.106 L 69.694,17.106 L 69.793,17.106 L 70.293,17.106 L 74.293,10.806 L 74.293,17.106 L 77.293,17.106 L 77.293,7.607 L 74.494,7.607 C 74.593,7.607 74.593,7.607 74.396,7.607 L 74.396,7.607 M 123.494,7.508 " style="fill: none; stroke: #000000; stroke-width: 0.5; stroke-opacity: 1.0" transform="matrix(1.0,0.0,0.0,1.0,-84.9945,-12.3535)"/></g><path id="id34cfe4a00092a38f5cc630a1" d="M 12.399,0.5 C 18.999,0.5 24.296,5.8 24.296,12.399 C 24.296,18.999 18.998,24.297 12.398,24.297 C 5.798,24.297 0.499,18.898 0.499,12.398 C 0.499,5.898 5.799,0.499 12.398,0.499 M 12.398,-0.001 C 5.599,-0.001 -0,5.598 -0,12.397 C -0,19.196 5.599,24.796 12.398,24.796 C 19.197,24.796 24.796,19.196 24.796,12.398 C 24.796,5.599 19.197,-0.001 12.397,-0.001 L 12.397,-0.001 L 12.397,-0.001 M 12.397,0.499 " style="fill: #000000; fill-opacity: 1.0; stroke: none" transform="matrix(1.0,0.0,0.0,1.0,-70.49849999999999,-12.398)"/></g></g></g></svg>